<svg id="Layer_1" data-name="Layer 1" xmlns="http://www.w3.org/2000/svg" viewBox="0 0 680.96 192.12"><defs><style>.cls-1{fill:#3d4956;}.cls-2{fill:#00a9c2;}.cls-3{fill:#0289b5;}.cls-4{fill:#08b6c4;}</style></defs><title>BP-02-trimmed</title><path class="cls-1" d="M193.76,99.68V31.1h24.79a19.28,19.28,0,0,1,13.58,5,15.9,15.9,0,0,1,5.61,12.5c0,6.59-3.25,11.71-8.76,13.77,8.76,1.58,13.78,8.27,13.78,17a19.32,19.32,0,0,1-6,14.56c-3.94,3.84-8.86,5.7-14.86,5.7Zm12.3-40.93h10.82c5.22,0,8.86-3.44,8.86-8.46,0-4.63-3.64-8.07-8.76-8.07H206.06Zm0,29.82h13.77c6.2,0,10.73-4.23,10.73-9.84s-4.53-9.65-10.83-9.65H206.06Z"/><path class="cls-1" d="M248.47,74.89c0-7.87,2.46-14.17,7.28-19s11.12-7.19,18.7-7.19c7.18,0,13.08,2.37,17.61,7.19A24.62,24.62,0,0,1,299,73.71c0,1.47-.1,2.85-.2,4.13H260.18c.39,7.87,6.2,13,15,13a18.25,18.25,0,0,0,13.38-5.71L295.6,92a27.52,27.52,0,0,1-20.86,8.86c-7.77,0-14.17-2.37-19-7s-7.28-10.82-7.28-18.6Zm38.47-5.31A9.63,9.63,0,0,0,283.21,62a12.69,12.69,0,0,0-8.76-3.25,15.25,15.25,0,0,0-9.55,3.15,10.8,10.8,0,0,0-4.42,7.68Z"/><path class="cls-1" d="M305.64,99.68V50.09h11.71v7.09c2.37-4.82,8-8.07,15.06-8.07,11.81,0,18.79,7.58,18.79,19.88V99.68H339.39v-29c0-6.79-3.93-11-10.52-11a11.06,11.06,0,0,0-11.52,11.51V99.68Z"/><path class="cls-1" d="M360,99.68V50.09h11.71v7.09c2.37-4.82,8-8.07,15.06-8.07,11.81,0,18.79,7.58,18.79,19.88V99.68H393.71v-29c0-6.79-3.93-11-10.52-11a11.06,11.06,0,0,0-11.52,11.51V99.68Z"/><path class="cls-1" d="M413.1,37.3a7,7,0,1,1,7.09,7A7,7,0,0,1,413.1,37.3Zm1.18,62.38V50.09h11.81V99.68Z"/><path class="cls-1" d="M433.87,99.68V50.09h11.71v7.09c2.36-4.82,8-8.07,15.05-8.07,11.81,0,18.79,7.58,18.79,19.88V99.68h-11.8v-29c0-6.79-3.94-11-10.53-11a11.05,11.05,0,0,0-11.51,11.51V99.68Z"/><path class="cls-1" d="M526.66,57.27V50.09h11.81V91.42c0,11.91-1.68,19.19-8.37,24.4-4.72,3.64-10.52,5.51-17.51,5.51-9.25,0-17.22-2.36-24-7.18l5.71-8.76a30,30,0,0,0,17,5.41c4.62,0,8.27-1,10.92-3,3.15-2.26,4.73-6.49,4.73-12.59V92.8c-2.37,4.23-8.27,7.28-16.14,7.28a24.12,24.12,0,0,1-17.71-7.28A24.91,24.91,0,0,1,486,74.69a25,25,0,0,1,7.18-18.2A23.37,23.37,0,0,1,510.82,49C519,49,525,52.45,526.66,57.27Zm-3.54,28.15a14.42,14.42,0,0,0,4.42-10.73,14.16,14.16,0,0,0-4.42-10.62,14.69,14.69,0,0,0-10.73-4.33,14.24,14.24,0,0,0-10.53,4.33,14.7,14.7,0,0,0-4.13,10.62,15,15,0,0,0,4.13,10.73,14.19,14.19,0,0,0,10.53,4.23A14.65,14.65,0,0,0,523.12,85.42Z"/><path class="cls-1" d="M548,60.82h-6.2V50.09H548v-19h11.8v19h10.92V60.82H559.82V83c0,5.41,1.87,7.38,6.2,7.38a18.19,18.19,0,0,0,4.14-.4v10.53a27,27,0,0,1-6.11.59c-10.72,0-16-5.61-16-16.82Z"/><path class="cls-1" d="M574.19,74.89a25,25,0,0,1,7.88-18.7,28.1,28.1,0,0,1,38.37,0,25.07,25.07,0,0,1,7.87,18.7,25,25,0,0,1-7.87,18.69,28.07,28.07,0,0,1-38.37,0A25,25,0,0,1,574.19,74.89Zm38,11.12a15.26,15.26,0,0,0,4.43-11.12,14.87,14.87,0,0,0-4.43-11,15.55,15.55,0,0,0-21.94,0,15.22,15.22,0,0,0-4.33,11A15.63,15.63,0,0,0,590.23,86a15.8,15.8,0,0,0,21.94,0Z"/><path class="cls-1" d="M635.4,99.68V50.09h11.71v7.09c2.36-4.82,8-8.07,15-8.07C674,49.11,681,56.69,681,69V99.68H669.15v-29c0-6.79-3.93-11-10.53-11a11.05,11.05,0,0,0-11.51,11.51V99.68Z"/><path class="cls-1" d="M193.76,144.51V121.34h8.84a7.61,7.61,0,0,1,5.25,2.09,7.56,7.56,0,0,1,0,10.84,7.35,7.35,0,0,1-5.25,2.13h-4.69v8.11Zm4.15-11.87h4.49a3.78,3.78,0,0,0,0-7.55h-4.49Z"/><path class="cls-1" d="M224.51,144.51V121.34h9a7.33,7.33,0,0,1,5.32,2.12,6.92,6.92,0,0,1,2.19,5.22,7,7,0,0,1-4.22,6.59l5.62,9.24h-4.69l-5-8.25h-4.12v8.25Zm4.16-12h4.42a3.64,3.64,0,0,0,3.82-3.79,3.47,3.47,0,0,0-3.49-3.66h-4.75Z"/><path class="cls-1" d="M258.36,141.51a12,12,0,0,1,0-17.08,12.53,12.53,0,0,1,17.35,0,12,12,0,0,1,0,17.08,12.64,12.64,0,0,1-17.38,0Zm2.86-2.66a8.28,8.28,0,0,0,11.6,0,8.51,8.51,0,0,0,0-11.76,8.21,8.21,0,0,0-11.6,0,8,8,0,0,0-2.33,5.88A7.93,7.93,0,0,0,261.22,138.85Z"/><path class="cls-1" d="M293.8,144.51V121.34h8.84a7.61,7.61,0,0,1,5.26,2.09,7.56,7.56,0,0,1,0,10.84,7.38,7.38,0,0,1-5.26,2.13H298v8.11ZM298,132.64h4.48a3.78,3.78,0,0,0,0-7.55H298Z"/><path class="cls-1" d="M324.56,144.51V121.34h14.76v3.75H328.71v5.52h9.94v3.76h-9.94v6.38h10.84v3.76Z"/><path class="cls-1" d="M354.41,144.51V121.34h9a7.32,7.32,0,0,1,5.32,2.12,6.92,6.92,0,0,1,2.19,5.22,7,7,0,0,1-4.22,6.59l5.62,9.24h-4.69l-4.95-8.25h-4.12v8.25Zm4.16-12H363a3.64,3.64,0,0,0,3.82-3.79,3.47,3.47,0,0,0-3.49-3.66h-4.75Z"/><path class="cls-1" d="M389.76,144.51V125.09h-6.29v-3.75h16.72v3.75h-6.28v19.42Z"/><path class="cls-1" d="M414.19,144.51V121.34h4.16v23.17Z"/><path class="cls-1" d="M434.28,144.51V121.34H449v3.75H438.43v5.52h9.94v3.76h-9.94v6.38h10.84v3.76Z"/><path class="cls-1" d="M465.53,137.66a6,6,0,0,0,5.82,3.52c2.89,0,3.92-1.53,3.92-3a2.56,2.56,0,0,0-1.33-2.36,12.67,12.67,0,0,0-3.39-1.6,15.32,15.32,0,0,1-4.69-2.46,5.52,5.52,0,0,1-2-4.55,5.67,5.67,0,0,1,2.06-4.52,7.67,7.67,0,0,1,5.12-1.73,8,8,0,0,1,7.15,3.75l-3,2a4.6,4.6,0,0,0-4.12-2.06c-1.83,0-3.16,1-3.16,2.46a2.54,2.54,0,0,0,1,2c.37.26,1.3.66,1.73.89l1.2.47,1.36.53A13.37,13.37,0,0,1,478,133.9a5.85,5.85,0,0,1,1.46,4.16c0,4.09-2.82,6.85-8.11,6.85-4.28,0-7.44-2-8.9-5.29Z"/><path class="cls-2" d="M101,152.55,84.19,175.29a38.33,38.33,0,0,1,0-45.49Z"/><path class="cls-3" d="M129.83,98.41a45.46,45.46,0,0,1-8.92,27.06l-20,27.08L84.19,129.8l9.2-12.46,5-6.83a17.68,17.68,0,0,0-26.74-23,17.05,17.05,0,0,0-1.21,1.33L82.36,72.72a45.37,45.37,0,0,0,8.28-19.51,45.67,45.67,0,0,1,39.19,45.2Z"/><path class="cls-4" d="M77.9,13.36a45.64,45.64,0,0,0-69,59.36l35.79,48.51,0,0a42.5,42.5,0,0,0,2.74,4.2l36.74,49.82a38.33,38.33,0,0,1,0-45.49L69.92,110.46,62.22,100,44.46,75.94a45,45,0,0,1,7.45-9.82A45.46,45.46,0,0,1,84.19,52.75a46.3,46.3,0,0,1,6.45.46A45.54,45.54,0,0,0,77.9,13.36ZM57.83,57.2,44.23,75.63,30.64,57.2a16.9,16.9,0,1,1,27.19,0Z"/><path class="cls-2" d="M90.64,53.21a45.37,45.37,0,0,1-8.28,19.51L70.47,88.85l-.2.24-.72,1-.13.18a17.71,17.71,0,0,0,.5,20.19L62.22,100,44.46,75.94a45,45,0,0,1,7.45-9.82A45.46,45.46,0,0,1,84.19,52.75,46.3,46.3,0,0,1,90.64,53.21Z"/><path class="cls-2" d="M101.46,162.55l-.91,1.24c6.59,2,10.84,5.19,10.84,8.79,0,5.83-11.21,10.6-25.41,11H82.4c-14.2-.39-25.42-5.15-25.42-11,0-3.58,4.26-6.77,10.83-8.79l-.91-1.26c-8.88,2.88-14.76,7.85-14.76,13.54,0,8.87,14.35,16.05,32.05,16.05s32.07-7.18,32.07-16.05C116.26,170.38,110.36,165.39,101.46,162.55Z"/></svg>