<svg xmlns="http://www.w3.org/2000/svg" viewBox="0 0 526.92 387.12"><defs><style>.cls-1{fill:#fff;}</style></defs><title>n-Asset 1</title><g id="Layer_2" data-name="Layer 2"><g id="Layer_1-2" data-name="Layer 1"><path class="cls-1" d="M317.9,117.42a54.35,54.35,0,0,1-10.62,32.29l-9.23,12.5-34.6,46.92a45.73,45.73,0,0,1,0-54.26l11-14.89,5.42-7.35.58-.78a21.1,21.1,0,0,0-31.9-27.43,19.8,19.8,0,0,0-1.44,1.6l-.24.28-.86,1.19-.16.22a21.13,21.13,0,0,0,.65,24.14l11.7,15.89-1.55,2.12a53.93,53.93,0,0,0-10.51,35.76l-26.49-35.91a53.65,53.65,0,0,1-3.31-5.07,54.43,54.43,0,0,1,3.24-59.48L232,68.25a20.25,20.25,0,0,0,3.37-7.18,20.71,20.71,0,0,0,.56-4.76,20.14,20.14,0,1,0-36.35,11.94l11,15a62.36,62.36,0,0,0-9.88,40.3L173.63,86.77a54.45,54.45,0,1,1,98.28-32.31,5.62,5.62,0,0,1,0,.58,52,52,0,0,1-.75,8.45,54.47,54.47,0,0,1,46.76,53.93Z"/><path class="cls-1" d="M284.06,193.94,283,195.42c7.86,2.39,12.94,6.19,12.94,10.48,0,7-13.39,12.65-30.32,13.1a3.24,3.24,0,0,1-.44,0h-3l-.8,0c-16.94-.47-30.32-6.14-30.32-13.1,0-4.27,5.07-8.07,12.91-10.48l-1.08-1.5c-10.6,3.43-17.62,9.36-17.62,16.15,0,10.58,17.13,19.15,38.24,19.15s38.26-8.57,38.26-19.15C301.71,203.28,294.67,197.33,284.06,193.94Z"/><path class="cls-1" d="M0,338.14V264H26.82a20.89,20.89,0,0,1,14.68,5.42,17.19,17.19,0,0,1,6.07,13.52c0,7.13-3.51,12.66-9.47,14.9,9.47,1.7,14.9,8.94,14.9,18.41A20.88,20.88,0,0,1,46.51,332c-4.26,4.15-9.58,6.17-16.07,6.17Zm13.3-44.27H25c5.64,0,9.58-3.72,9.58-9.15,0-5-3.94-8.73-9.48-8.73H13.3Zm0,32.25H28.2c6.71,0,11.6-4.58,11.6-10.64s-4.89-10.43-11.71-10.43H13.3Z"/><path class="cls-1" d="M59.17,311.33c0-8.52,2.66-15.33,7.88-20.54s12-7.77,20.22-7.77c7.77,0,14.15,2.55,19,7.77a26.66,26.66,0,0,1,7.45,19.26c0,1.59-.11,3.08-.22,4.47H71.84c.42,8.51,6.7,14.05,16.17,14.05a19.75,19.75,0,0,0,14.48-6.18l7.66,7.45a29.75,29.75,0,0,1-22.56,9.58c-8.41,0-15.33-2.55-20.54-7.56s-7.88-11.7-7.88-20.11Zm41.61-5.75a10.45,10.45,0,0,0-4-8.2,13.75,13.75,0,0,0-9.47-3.51A16.44,16.44,0,0,0,77,297.28a11.63,11.63,0,0,0-4.79,8.3Z"/><path class="cls-1" d="M121,338.14V284.51h12.66v7.66c2.56-5.21,8.62-8.73,16.28-8.73,12.78,0,20.33,8.2,20.33,21.5v33.2H157.51V306.75c0-7.34-4.26-11.92-11.39-11.92s-12.45,5.11-12.45,12.45v30.86Z"/><path class="cls-1" d="M179.76,338.14V284.51h12.66v7.66c2.55-5.21,8.62-8.73,16.28-8.73,12.77,0,20.33,8.2,20.33,21.5v33.2H216.26V306.75c0-7.34-4.26-11.92-11.39-11.92s-12.45,5.11-12.45,12.45v30.86Z"/><path class="cls-1" d="M237.23,270.67a7.61,7.61,0,1,1,7.66,7.56A7.54,7.54,0,0,1,237.23,270.67Zm1.27,67.47V284.51h12.78v53.63Z"/><path class="cls-1" d="M259.68,338.14V284.51h12.67v7.66c2.55-5.21,8.62-8.73,16.28-8.73,12.77,0,20.33,8.2,20.33,21.5v33.2H296.19V306.75c0-7.34-4.26-11.92-11.39-11.92s-12.45,5.11-12.45,12.45v30.86Z"/><path class="cls-1" d="M360,292.28v-7.77h12.77V329.2c0,12.88-1.81,20.76-9,26.4-5.11,3.93-11.39,5.95-18.95,5.95-10,0-18.62-2.55-26-7.76l6.17-9.48a32.49,32.49,0,0,0,18.41,5.86q7.5,0,11.81-3.19c3.41-2.45,5.11-7,5.11-13.63v-2.66c-2.55,4.58-8.94,7.88-17.45,7.88a26.09,26.09,0,0,1-19.16-7.88c-5.11-5.21-7.66-11.81-7.66-19.58a27,27,0,0,1,7.77-19.69,25.27,25.27,0,0,1,19.05-8.08C351.74,283.34,358.23,287.06,360,292.28Zm-3.83,30.43a15.57,15.57,0,0,0,4.79-11.6,15.34,15.34,0,0,0-4.79-11.49,15.86,15.86,0,0,0-11.6-4.68,15.42,15.42,0,0,0-11.39,4.68,15.92,15.92,0,0,0-4.46,11.49,16.17,16.17,0,0,0,4.46,11.6,15.33,15.33,0,0,0,11.39,4.58A15.78,15.78,0,0,0,356.21,322.71Z"/><path class="cls-1" d="M383.14,296.11h-6.7v-11.6h6.7V264h12.77v20.54h11.81v11.6H395.91v23.94c0,5.85,2,8,6.7,8a19.85,19.85,0,0,0,4.47-.42V339a29.17,29.17,0,0,1-6.59.64c-11.6,0-17.35-6.06-17.35-18.2Z"/><path class="cls-1" d="M411.45,311.33A27,27,0,0,1,420,291.11a30.35,30.35,0,0,1,41.5,0,28.26,28.26,0,0,1,0,40.43,30.35,30.35,0,0,1-41.5,0A27,27,0,0,1,411.45,311.33Zm41.08,12a16.55,16.55,0,0,0,4.79-12,16.13,16.13,0,0,0-4.79-11.92,16.81,16.81,0,0,0-23.73,0,16.44,16.44,0,0,0-4.68,11.92,16.87,16.87,0,0,0,4.68,12,17.09,17.09,0,0,0,23.73,0Z"/><path class="cls-1" d="M477.65,338.14V284.51h12.66v7.66c2.56-5.21,8.62-8.73,16.28-8.73,12.78,0,20.33,8.2,20.33,21.5v33.2H514.15V306.75c0-7.34-4.26-11.92-11.39-11.92s-12.45,5.11-12.45,12.45v30.86Z"/><path class="cls-1" d="M0,386.62V361.56H9.56a8.24,8.24,0,0,1,5.68,2.26,8.17,8.17,0,0,1,0,11.73,8,8,0,0,1-5.68,2.3H4.49v8.77Zm4.49-12.84H9.35a4.08,4.08,0,0,0,0-8.16H4.49Z"/><path class="cls-1" d="M33.26,386.62V361.56H43a7.92,7.92,0,0,1,5.76,2.3,7.86,7.86,0,0,1-2.2,12.76l6.08,10H47.57l-5.36-8.92H37.76v8.92Zm4.5-12.94h4.78a3.93,3.93,0,0,0,4.13-4.1,3.76,3.76,0,0,0-3.77-4H37.76Z"/><path class="cls-1" d="M69.87,383.38a13,13,0,0,1,0-18.48,13.55,13.55,0,0,1,18.76,0,13,13,0,0,1,0,18.48,13.68,13.68,0,0,1-18.8,0ZM73,380.51a9,9,0,0,0,12.55,0,9.22,9.22,0,0,0,0-12.73,8.9,8.9,0,0,0-12.55,0,8.74,8.74,0,0,0-2.52,6.36A8.62,8.62,0,0,0,73,380.51Z"/><path class="cls-1" d="M108.2,386.62V361.56h9.56a8.22,8.22,0,0,1,5.68,2.26,8.17,8.17,0,0,1,0,11.73,8,8,0,0,1-5.68,2.3h-5.07v8.77Zm4.49-12.84h4.86a4.08,4.08,0,0,0,0-8.16h-4.86Z"/><path class="cls-1" d="M141.46,386.62V361.56h16v4.06H146v6h10.75v4.06H146v6.91h11.72v4.06Z"/><path class="cls-1" d="M173.75,386.62V361.56h9.75a7.91,7.91,0,0,1,5.75,2.3,7.47,7.47,0,0,1,2.37,5.65,7.55,7.55,0,0,1-4.56,7.11l6.07,10h-5.07l-5.35-8.92h-4.46v8.92Zm4.5-12.94H183a3.93,3.93,0,0,0,4.13-4.1,3.75,3.75,0,0,0-3.77-4h-5.14Z"/><path class="cls-1" d="M212,386.62v-21h-6.8v-4.06h18.09v4.06h-6.8v21Z"/><path class="cls-1" d="M238.41,386.62V361.56h4.49v25.06Z"/><path class="cls-1" d="M260.13,386.62V361.56h16v4.06H264.62v6h10.75v4.06H264.62v6.91h11.72v4.06Z"/><path class="cls-1" d="M293.93,379.21a6.53,6.53,0,0,0,6.29,3.81c3.13,0,4.24-1.65,4.24-3.27A2.75,2.75,0,0,0,303,377.2a14.11,14.11,0,0,0-3.66-1.73,16.66,16.66,0,0,1-5.07-2.66,6,6,0,0,1-2.12-4.92A6.1,6.1,0,0,1,294.4,363a8.31,8.31,0,0,1,5.53-1.87,8.6,8.6,0,0,1,7.73,4.06l-3.2,2.19a5,5,0,0,0-4.46-2.22c-2,0-3.41,1.11-3.41,2.66a2.72,2.72,0,0,0,1,2.15c.4.29,1.4.72,1.87,1l1.29.51,1.48.57a14.54,14.54,0,0,1,5.1,3.13,6.3,6.3,0,0,1,1.59,4.49c0,4.43-3.06,7.41-8.78,7.41-4.63,0-8.05-2.16-9.63-5.72Z"/></g></g></svg>