<?xml version="1.0" encoding="UTF-8"?>
<svg fill="#0589B5" width="100pt" height="100pt" version="1.1" viewBox="0 0 100 100" xmlns="http://www.w3.org/2000/svg">
 <g>
  <path d="m91.648 53.898c0.84375-2.8125 0.074218-5.8594-2-7.9375l-41.648-41.582c-2.0664-2.082-5.1055-2.8672-7.9219-2.0469-2.8164 0.82422-4.957 3.1211-5.5781 5.9883l-6.1484 27.68-14.211 14.199c-5.0938 5.0664-7.2305 12.395-5.6602 19.402 1.5703 7.0117 6.625 12.727 13.395 15.137 6.7656 2.4102 14.297 1.1797 19.945-3.2578l12.871 12.859c4.8711 4.875 12.773 4.875 17.648 0s4.875-12.777 0-17.648l-11.629-11.641 25-5.5508c2.8555-0.64062 5.1328-2.7891 5.9375-5.6016zm-62.648 24.102c-5.2383-0.019531-9.9492-3.1758-11.961-8.0117-2.0078-4.8359-0.92187-10.406 2.7617-14.129l12.199-12.199 18.34 18.34-12.199 12.199c-2.418 2.4336-5.7109 3.8047-9.1406 3.8008zm39 7.5195c-0.003906 1.8125-1.0977 3.4453-2.7734 4.1406-1.6758 0.69141-3.6016 0.30859-4.8867-0.96875l-12.68-12.691 6.3398-6.3398 12.691 12.68c0.83984 0.84375 1.3086 1.9883 1.3086 3.1797zm-10.719-27.898-20.902-20.891 6-26.711 41.562 41.672z"/>
  <path d="m64 2c-2.2109 0-4 1.7891-4 4s1.7891 4 4 4c5.3047 0 10.391 2.1055 14.141 5.8594 3.7539 3.75 5.8594 8.8359 5.8594 14.141 0 2.2109 1.7891 4 4 4s4-1.7891 4-4c0-7.4258-2.9492-14.547-8.1992-19.801-5.2539-5.25-12.375-8.1992-19.801-8.1992z"/>
 </g>
</svg>
