<?xml version="1.0" encoding="UTF-8"?>
<svg fill="#0589B5" width="100pt" height="100pt" version="1.1" viewBox="0 0 100 100" xmlns="http://www.w3.org/2000/svg">
 <g fill-rule="evenodd">
  <path d="m31.004 43.09c-0.58984 0.007812-1.1289 0.34766-1.3867 0.87891l-23.211 47.535c-0.28906 0.60156-0.16797 1.3164 0.30469 1.7891 0.47266 0.46875 1.1875 0.58984 1.7891 0.29688l47.535-23.211c0.45312-0.22266 0.77344-0.65234 0.85547-1.1484 0.082031-0.5-0.082031-1.0078-0.44141-1.3672l-24.316-24.316c-0.30078-0.29688-0.70703-0.46484-1.1289-0.45703zm0.46484 4.2227l21.223 21.219-41.477 20.258z"/>
  <path d="m44.391 59.574v13.27h3.125v-13.27z"/>
  <path d="m37.754 52.945v23.211h3.125v-23.211z"/>
  <path d="m31.121 46.312v33.16h3.125v-33.16z"/>
  <path d="m24.492 55.156v27.637h3.125v-27.637z"/>
  <path d="m17.855 68.418v17.688h3.125v-17.688z"/>
  <path d="m69.652 28.738c-0.40625 0.011719-0.78906 0.17969-1.0742 0.47266l-20.973 20.973c-0.30078 0.28906-0.47656 0.69141-0.48047 1.1094s0.16406 0.82422 0.46094 1.1211c0.29687 0.29688 0.69922 0.46094 1.1172 0.45703 0.42188-0.003906 0.82031-0.17578 1.1133-0.48047l20.973-20.973c0.45703-0.44922 0.59766-1.1328 0.34375-1.7266-0.25-0.58984-0.83594-0.96875-1.4805-0.95312z"/>
  <path d="m65.852 49.668c-4.8008-0.003907-9.5977 1.8164-13.25 5.4688h-0.003906c-0.30078 0.29297-0.47266 0.69141-0.47656 1.1133-0.003906 0.41797 0.16016 0.82031 0.45703 1.1172 0.29688 0.29687 0.69922 0.46484 1.1172 0.46094 0.42188-0.003906 0.82031-0.17969 1.1133-0.48047 6.1094-6.1094 15.977-6.1016 22.094 0.03125l1.0859 1.0938h0.003907c0.29297 0.29297 0.69141 0.46094 1.1055 0.46094 0.41797 0 0.81641-0.16797 1.1094-0.46094 0.29297-0.29297 0.45703-0.69531 0.45703-1.1094 0-0.41797-0.16797-0.81641-0.46484-1.1094l-1.0859-1.0859c-3.6562-3.6562-8.4609-5.4844-13.262-5.4883z"/>
  <path d="m55.344 23.191c-0.63672 0-1.207 0.38672-1.4453 0.97656-0.23828 0.58984-0.097657 1.2656 0.35937 1.707l0.35938 0.35938c1.6641 1.6641 1.6914 4.1875 0.1875 5.6875l0.003906 0.003906c-0.30469 0.28906-0.47656 0.69141-0.48047 1.1094-0.003906 0.42188 0.16016 0.82422 0.45703 1.1211s0.70312 0.46094 1.1211 0.45703c0.42188-0.003906 0.82031-0.17578 1.1133-0.47656 2.7539-2.7539 2.6133-7.3047-0.1875-10.109l-0.35938-0.35938h-0.003906c-0.29297-0.30469-0.69922-0.47656-1.125-0.47656z"/>
  <path d="m70.898 40.988c-1.832-0.039062-3.6602 0.61328-5.0352 1.9883v0.003907c-0.30469 0.28906-0.47656 0.69141-0.48047 1.1094-0.003906 0.42188 0.16016 0.82422 0.45703 1.1211 0.29688 0.29687 0.70312 0.46094 1.1211 0.45703 0.41797-0.003907 0.82031-0.17578 1.1094-0.48047 1.5-1.5 4.0234-1.4766 5.6875 0.19141l0.35938 0.36719h0.003906c0.28906 0.30078 0.69141 0.47266 1.1094 0.47656 0.42188 0.003906 0.82422-0.16016 1.1211-0.45703 0.29688-0.29688 0.46094-0.69922 0.45703-1.1172-0.003906-0.42188-0.17578-0.82031-0.47656-1.1133l-0.35938-0.36719c-1.4023-1.4023-3.2383-2.1367-5.0703-2.1797z"/>
  <path d="m61.852 58.715c-1.3477 0.097656-2.6797 0.46094-3.918 1.1367-0.36719 0.19531-0.64453 0.53125-0.76172 0.92969-0.12109 0.39844-0.078125 0.83203 0.12109 1.1953 0.20312 0.36719 0.53906 0.64063 0.94141 0.75391 0.39844 0.11719 0.82812 0.070312 1.1953-0.13281 3.3008-1.7969 8.0078-0.34766 10.352 3.4922l0.44141 0.72656h-0.003906c0.21875 0.35156 0.56641 0.60938 0.96875 0.70703 0.40234 0.097656 0.82812 0.03125 1.1836-0.1875 0.35547-0.21484 0.60938-0.5625 0.70703-0.96875 0.09375-0.40234 0.027344-0.82813-0.19141-1.1836l-0.44141-0.72656c-2.3477-3.8438-6.5508-6.0312-10.598-5.7422z"/>
  <path d="m33.922 26.871c-0.69141 0.027344-1.2812 0.50781-1.4492 1.1797-0.17188 0.67188 0.12109 1.3711 0.71484 1.7266l0.72656 0.44531c3.8359 2.3438 5.2812 7.0469 3.4844 10.348v-0.003906c-0.19922 0.36719-0.24609 0.79688-0.12891 1.1953 0.11328 0.39844 0.38672 0.73828 0.75 0.9375 0.36719 0.19922 0.79688 0.24219 1.1953 0.125 0.39844-0.12109 0.73438-0.39453 0.93359-0.76172 2.6992-4.957 0.52344-11.379-4.6016-14.508l-0.72656-0.44531h-0.003906c-0.26562-0.16797-0.57812-0.25-0.89453-0.23828z"/>
  <path d="m77.406 20.988c-0.40625 0.011719-0.79297 0.17969-1.0742 0.46875l-2.2812 2.2812h-0.003906c-0.30078 0.29297-0.47266 0.69141-0.47656 1.1133-0.007812 0.41797 0.16016 0.82422 0.45703 1.1211s0.69922 0.46094 1.1172 0.45703c0.42188-0.003907 0.82031-0.17578 1.1133-0.48047l2.2812-2.2812c0.46094-0.44922 0.59766-1.1367 0.34766-1.7266-0.25-0.59375-0.83984-0.97266-1.4805-0.95312z"/>
  <path d="m75.117 23.293c-0.72266 0.015625-1.3398 0.51562-1.5 1.2188-0.15625 0.70312 0.18359 1.4219 0.82812 1.7422l2.8945 1.4844h-0.003906c0.37109 0.1875 0.80078 0.22266 1.1953 0.09375 0.39453-0.125 0.71875-0.40625 0.91016-0.77344 0.1875-0.37109 0.22266-0.80078 0.09375-1.1914-0.12891-0.39453-0.40625-0.72266-0.77734-0.91406l-2.8945-1.4844 0.003907 0.003906c-0.23047-0.12109-0.49219-0.18359-0.75-0.17969z"/>
  <path d="m75.199 23.289c-0.79688-0.03125-1.4922 0.55078-1.6055 1.3438l-0.5 3.1992v-0.003906c-0.0625 0.41016 0.035156 0.83203 0.28125 1.168 0.24609 0.33594 0.61328 0.55859 1.0234 0.625 0.41016 0.0625 0.82812-0.039063 1.1641-0.28516 0.33594-0.24609 0.55859-0.61328 0.62109-1.0234l0.5-3.1992c0.078125-0.44531-0.042969-0.89844-0.32812-1.25-0.28125-0.34766-0.70312-0.55859-1.1562-0.57422z"/>
  <path d="m75.152 23.293c-0.089844 0.003906-0.17969 0.015625-0.26953 0.03125l-3.1992 0.49609c-0.41016 0.0625-0.78125 0.28516-1.0273 0.62109-0.24609 0.33594-0.34766 0.75391-0.28516 1.1641 0.066406 0.41406 0.28906 0.78125 0.62891 1.0273 0.33594 0.24219 0.75781 0.34375 1.168 0.27734l3.1992-0.49609c0.82031-0.10547 1.418-0.83203 1.3594-1.6562-0.054687-0.82812-0.74609-1.4648-1.5742-1.457z"/>
  <path d="m73.664 20.371c-0.55078-0.007813-1.0664 0.27734-1.3516 0.75-0.28906 0.46875-0.30469 1.0586-0.046875 1.543l1.4766 2.8945c0.39453 0.76953 1.3359 1.0742 2.1055 0.67969 0.76953-0.39453 1.0703-1.3398 0.67969-2.1094l-1.4766-2.8867h-0.003906c-0.25781-0.52734-0.79297-0.86328-1.3828-0.87109z"/>
  <path d="m42.633 19.328c-0.63672 0-1.207 0.38672-1.4453 0.97266-0.23828 0.58984-0.097656 1.2617 0.35547 1.707l1.0859 1.0938c6.1172 6.1211 6.1289 15.98 0.019532 22.09v-0.003906c-0.30078 0.29297-0.47656 0.69141-0.48047 1.1133-0.003907 0.42188 0.16016 0.82422 0.45703 1.1211 0.29688 0.30078 0.70312 0.46484 1.1211 0.46094 0.42188-0.007812 0.82422-0.17969 1.1133-0.48437 7.3047-7.3047 7.293-19.195-0.019531-26.508l-1.0859-1.0938c-0.29688-0.30078-0.69922-0.47266-1.1211-0.46875z"/>
  <path d="m38.164 10.484c-0.40625 0.011719-0.79297 0.18359-1.0742 0.47266l-2.2852 2.2852c-0.30078 0.28906-0.47656 0.69141-0.48047 1.1133-0.003907 0.41797 0.16016 0.82422 0.45703 1.1211 0.29688 0.29688 0.70312 0.46094 1.1211 0.45703 0.42188-0.003906 0.82422-0.17969 1.1133-0.48438l2.2812-2.2812c0.46484-0.44922 0.60547-1.1367 0.35547-1.7305-0.25391-0.59766-0.84375-0.97656-1.4883-0.95312z"/>
  <path d="m35.875 12.789c-0.72656 0.007813-1.3516 0.51172-1.5117 1.2188-0.15625 0.70703 0.1875 1.4297 0.83984 1.75l2.8867 1.4766c0.76953 0.39062 1.7109 0.085937 2.1016-0.67969 0.39453-0.76953 0.089844-1.7109-0.67969-2.1055l-2.8867-1.4766c-0.23047-0.12109-0.48828-0.1875-0.75-0.18359z"/>
  <path d="m35.801 12.789c-0.73828 0.046876-1.3438 0.60938-1.4453 1.3438l-0.5 3.1992c-0.066407 0.41016 0.035156 0.82812 0.27734 1.1641 0.24609 0.33594 0.61328 0.55859 1.0234 0.625 0.41016 0.0625 0.82812-0.039063 1.1641-0.28516 0.33594-0.24609 0.55859-0.61328 0.62109-1.0234l0.49609-3.1992c0.082031-0.46875-0.058594-0.94922-0.37891-1.3086-0.31641-0.35547-0.78125-0.54297-1.2578-0.51563z"/>
  <path d="m35.906 12.789c-0.089844 0.003907-0.17578 0.015626-0.26562 0.03125l-3.1992 0.5h0.003906c-0.41406 0.0625-0.78516 0.28516-1.0312 0.62109-0.24609 0.33594-0.34766 0.75781-0.28516 1.168s0.28906 0.78125 0.62891 1.0234c0.33594 0.24609 0.75781 0.34375 1.168 0.27734l3.1992-0.5c0.82422-0.10156 1.4219-0.83203 1.3633-1.6602-0.058593-0.82812-0.75391-1.4648-1.582-1.4531z"/>
  <path d="m34.422 9.8672c-0.55469-0.007813-1.0703 0.27344-1.3555 0.74609-0.28906 0.47266-0.30859 1.0586-0.046875 1.5469l1.4844 2.8945h-0.003906c0.39453 0.76953 1.3359 1.0742 2.1055 0.67969 0.36719-0.1875 0.64453-0.51562 0.77344-0.91016s0.09375-0.82422-0.09375-1.1914l-1.4844-2.8945c-0.25781-0.52734-0.79297-0.86328-1.3789-0.87109z"/>
  <path d="m87.91 60.23c-0.40625 0.007812-0.79297 0.17969-1.0742 0.46875l-2.2891 2.2891c-0.29297 0.29297-0.45703 0.69141-0.45703 1.1055s0.16406 0.8125 0.45703 1.1055c0.29688 0.29297 0.69531 0.45703 1.1094 0.45703s0.8125-0.16406 1.1055-0.46094l2.2812-2.2891v0.003906c0.46094-0.45312 0.59766-1.1367 0.34766-1.7305-0.25-0.58984-0.83984-0.96875-1.4805-0.94922z"/>
  <path d="m84.168 59.613c-0.55469-0.007812-1.0703 0.27344-1.3555 0.74609-0.28906 0.47266-0.30859 1.0586-0.050781 1.5469l1.4844 2.8945c0.17578 0.39453 0.50391 0.69922 0.90625 0.83984 0.40625 0.14453 0.85547 0.11719 1.2383-0.078125 0.38281-0.19922 0.66797-0.54297 0.78516-0.95703 0.12109-0.41406 0.066407-0.85547-0.15234-1.2266l-1.4766-2.8945c-0.25781-0.52734-0.79297-0.86328-1.3789-0.87109z"/>
  <path d="m85.652 62.535c-0.089844 0.003906-0.17969 0.015625-0.26562 0.03125l-3.1992 0.49609h0.003906c-0.41797 0.054688-0.79297 0.27734-1.043 0.61328-0.25391 0.33594-0.35938 0.75781-0.29297 1.1719 0.0625 0.41406 0.28906 0.78516 0.63281 1.0312 0.33984 0.24609 0.76562 0.34375 1.1758 0.26953l3.2031-0.49609 0.003906 0.003906c0.82031-0.10547 1.418-0.83203 1.3594-1.6602-0.058594-0.82812-0.75-1.4648-1.5781-1.4531z"/>
  <path d="m85.547 62.535c-0.74219 0.046875-1.3477 0.60547-1.4531 1.3438l-0.49609 3.1992h0.003906c-0.074218 0.41406 0.023438 0.83594 0.26953 1.1758s0.61719 0.57031 1.0312 0.63281c0.41406 0.0625 0.83594-0.042969 1.1719-0.29297 0.33594-0.25 0.55859-0.625 0.61328-1.0391l0.49609-3.1992c0.078125-0.46875-0.0625-0.94922-0.37891-1.3047-0.32031-0.35547-0.78125-0.54297-1.2578-0.51562z"/>
  <path d="m85.613 62.535c-0.72266 0.007813-1.3477 0.51172-1.5078 1.2188-0.16016 0.70703 0.1875 1.4297 0.83594 1.75l2.8945 1.4766c0.76562 0.37891 1.6992 0.074219 2.0898-0.6875 0.38672-0.76562 0.089844-1.6992-0.66797-2.0977l-2.8867-1.4766c-0.23438-0.125-0.49219-0.1875-0.75781-0.18359z"/>
  <path d="m78.582 47.332c-0.29297 0.29297-0.46094 0.69141-0.46094 1.1055s0.16797 0.8125 0.46094 1.1055 0.69141 0.45703 1.1055 0.45703 0.8125-0.16406 1.1055-0.45703 0.45703-0.69141 0.45703-1.1055-0.16406-0.8125-0.45703-1.1055-0.69141-0.45703-1.1055-0.45703-0.8125 0.16406-1.1055 0.45703z"/>
  <path d="m50.453 19.207c-0.60938 0.60938-0.60938 1.5977 0 2.2109 0.29297 0.29297 0.69141 0.45703 1.1055 0.45703 0.41797 0 0.8125-0.16406 1.1055-0.45703 0.61328-0.61328 0.61328-1.6016 0-2.2109-0.29297-0.29297-0.6875-0.45703-1.1055-0.45703-0.41406 0-0.8125 0.16406-1.1055 0.45703z"/>
  <path d="m72.332 69.207c-0.29297 0.29297-0.46094 0.69141-0.46094 1.1055s0.16797 0.8125 0.46094 1.1055 0.6875 0.46094 1.1055 0.46094c0.41406 0 0.8125-0.16797 1.1055-0.46094s0.45703-0.69141 0.45703-1.1055-0.16406-0.8125-0.45703-1.1055-0.69141-0.45703-1.1055-0.45703c-0.41797 0-0.8125 0.16406-1.1055 0.45703z"/>
  <path d="m28.578 25.457c-0.29297 0.29297-0.45703 0.69141-0.45703 1.1055s0.16406 0.8125 0.45703 1.1055 0.69141 0.45703 1.1055 0.45703c0.41406 0 0.8125-0.16406 1.1055-0.45703 0.29297-0.29297 0.45703-0.69141 0.45703-1.1055s-0.16406-0.8125-0.45703-1.1055c-0.29297-0.29297-0.69141-0.45703-1.1055-0.45703-0.41406 0-0.8125 0.16406-1.1055 0.45703z"/>
  <path d="m77.02 34.832c-0.29297 0.29297-0.46094 0.69141-0.46094 1.1055s0.16797 0.8125 0.46094 1.1055 0.69141 0.45703 1.1055 0.45703 0.8125-0.16406 1.1055-0.45703 0.45703-0.69141 0.45703-1.1055-0.16406-0.8125-0.45703-1.1055-0.69141-0.45703-1.1055-0.45703-0.8125 0.16406-1.1055 0.45703z"/>
  <path d="m62.957 20.77c-0.29688 0.29297-0.46094 0.69141-0.46094 1.1055s0.16406 0.8125 0.46094 1.1055c0.29297 0.29297 0.6875 0.45703 1.1055 0.45703 0.41406 0 0.80859-0.16406 1.1055-0.45703 0.29297-0.29297 0.45703-0.69141 0.45703-1.1055s-0.16406-0.8125-0.45703-1.1055c-0.29688-0.29297-0.69141-0.45703-1.1055-0.45703-0.41797 0-0.8125 0.16406-1.1055 0.45703z"/>
  <path d="m87.957 52.02c-0.29297 0.29297-0.45703 0.69141-0.45703 1.1055s0.16406 0.8125 0.45703 1.1055c0.60938 0.60938 1.5977 0.60938 2.2109 0 0.29297-0.29297 0.45703-0.69141 0.45703-1.1055s-0.16406-0.8125-0.45703-1.1055c-0.61328-0.60938-1.6016-0.60938-2.2109 0z"/>
  <path d="m47.328 9.832c-0.29297 0.29297-0.45703 0.69141-0.45703 1.1055s0.16406 0.8125 0.45703 1.1055 0.69141 0.45703 1.1055 0.45703c0.41797 0 0.8125-0.16406 1.1055-0.45703 0.29297-0.29297 0.46094-0.69141 0.46094-1.1055s-0.16797-0.8125-0.46094-1.1055c-0.29297-0.29297-0.6875-0.45703-1.1055-0.45703-0.41406 0-0.8125 0.16406-1.1055 0.45703z"/>
 </g>
</svg>
