<?xml version="1.0" encoding="UTF-8"?>
<svg fill="#0589B5" width="100pt" height="100pt" version="1.1" viewBox="0 0 100 100" xmlns="http://www.w3.org/2000/svg">
 <g>
  <path d="m22.68 30.547c3.1836 0.34766 5.4844 3.207 5.1367 6.3945-0.34766 3.1836-3.207 5.4844-6.3906 5.1367-3.1875-0.34766-5.4883-3.207-5.1406-6.3945 0.34766-3.1836 3.2109-5.4844 6.3945-5.1367"/>
  <path d="m21.699 65.199h-8.3008c-2 0-3.6016-1.3984-4-3.3008l-2.8984-16.199c-0.19922-1.1016-1.1992-1.8008-2.3008-1.6016-1.1016 0.19922-1.8008 1.1992-1.6016 2.3008l2.8984 16.102c0.69922 3.8984 4 6.6992 7.8984 6.6992h6.8984v7.3008c0 1.1016 0.89844 2 2 2 1.1016 0 2-0.89844 2-2v-8.6992c0.007812-1.4023-1.1914-2.6016-2.5938-2.6016z"/>
  <path d="m28.301 56.801h-5.3008l1.3984-6.3008 3.6992 1.8008c0.39844 0.19922 0.80078 0.30078 1.1992 0.30078h0.10156l5.6016-0.30078c1.5-0.10156 2.6016-1.3008 2.6016-2.8008-0.10156-1.5-1.3008-2.6016-2.8008-2.6016l-4.8984 0.19922s-5.6016-2.8984-6.3008-3.1016c-0.80078-0.19922-4-0.89844-4-0.89844-1.1016-0.19922-2.3008 0-3.1992 0.60156-1 0.60156-1.6016 1.6016-1.8984 2.6992l-2.3008 11.199c-0.30078 1.1992 0.10156 2.5 0.80078 3.5 0.80078 1 2 1.5 3.1992 1.5h9.3008c0.60156 0 1.1016 0.5 1.1016 1.1016v11.602c0 1.6992 1.3008 3 3 3s3-1.3008 3-3l-0.003907-14.199c0-2.4023-2-4.3008-4.3008-4.3008z"/>
  <path d="m83.766 35.664c0.34766 3.1875-1.9531 6.0469-5.1367 6.3945s-6.0469-1.9531-6.3945-5.1367c-0.34766-3.1875 1.9531-6.0469 5.1406-6.3945 3.1836-0.34766 6.0469 1.9531 6.3906 5.1367"/>
  <path d="m95.801 44.102c-1.1016-0.19922-2.1016 0.5-2.3008 1.6016l-2.8984 16.102c-0.30078 1.8984-2 3.3008-4 3.3008h-8.3008c-1.3984 0-2.6016 1.1992-2.6016 2.6016v8.6992c0 1.1016 0.89844 2 2 2 1.1016 0 2-0.89844 2-2v-7.3008h6.8984c3.8984 0 7.3008-2.8008 7.8984-6.6992l2.8984-16.102c0.30469-1.0039-0.49609-2.0039-1.5938-2.2031z"/>
  <path d="m87.102 61.199c0.80078-1 1.1016-2.3008 0.89844-3.5l-2.3008-11.199c-0.19922-1.1016-0.89844-2.1016-1.8984-2.6992-1-0.60156-2.1016-0.80078-3.1992-0.60156 0 0-3.1992 0.69922-4 0.89844-0.69922 0.19922-6.3008 3.1016-6.3008 3.1016l-4.8984-0.19922c-1.5-0.10156-2.6992 1.1016-2.8008 2.6016-0.10156 1.5 1.1016 2.6992 2.6016 2.8008l5.6016 0.30078h0.10156c0.39844 0 0.80078-0.10156 1.1992-0.30078l3.6992-1.8008 1.3984 6.3008h-5.3008c-2.3984 0-4.3008 1.8984-4.3008 4.3008v14.398c0 1.6992 1.3008 3 3 3 1.6992 0 3-1.3008 3-3v-11.703c0-0.60156 0.5-1.1016 1.1016-1.1016h9.3008c1.0977 0.003906 2.2969-0.59766 3.0977-1.5977z"/>
  <path d="m63.699 54.602h-27.398c-1.1016 0-2 0.89844-2 2 0 1.1016 0.89844 2 2 2h11.699v18c0 1.1016 0.89844 2 2 2s2-0.89844 2-2v-18h11.699c1.1016 0 2-0.89844 2-2 0-1.1016-0.89844-2-2-2z"/>
  <path d="m57.301 33.398c0.19922 0.19922 0.5 0.30078 0.80078 0.30078 0.30078 0 0.60156-0.10156 0.80078-0.30078l4.3008-4.3008c0.39844-0.39844 0.39844-1.1016 0-1.5-0.39844-0.39844-1.1016-0.39844-1.5 0l-3.6016 3.6016-1.6992-1.6992c-0.39844-0.39844-1.1016-0.39844-1.5 0-0.39844 0.39844-0.39844 1.1016 0 1.5z"/>
  <path d="m34.102 36.801c0.10156 0.5-0.30078 1.1016-0.60156 1.6992-0.30078 0.5-0.80078 1.3008-0.30078 2 0.19922 0.19922 0.60156 0.39844 0.89844 0.5h0.10156c0.89844 0 4-0.89844 5.5-2 0.60156 0.10156 1.1992 0.10156 1.8008 0.10156 3.3984 0 6.5-1.3008 8.5-3.3008 2 2 5.1016 3.3008 8.5 3.3008 0.60156 0 1.1992 0 1.8008-0.10156 1.3984 1.1016 2.8008 1.8984 4.1016 2.3008 0.19922 0.10156 0.39844 0.10156 0.60156 0.10156h0.30078c0.5-0.10156 1-0.39844 1.3984-0.80078 0.60156-0.69922 0.60156-1.6992 0.10156-2.5-0.30078-0.5-0.5-0.89844-0.69922-1.5 2.1016-1.6992 3.1992-3.8984 3.1992-6.3008 0-4.8984-4.8984-8.8984-10.898-8.8984-3.3984 0-6.5 1.3008-8.5 3.3008-2-2-5.1016-3.3008-8.5-3.3008-6 0-10.898 4-10.898 8.8984-0.007812 2.5 1.293 4.8984 3.5938 6.5zm17.199-10.301c1.6016-1.6992 4.1992-2.8984 7.1992-2.8984 4.8984 0 8.8008 3 8.8008 6.6992 0 1.8984-1.1016 3.6992-2.8984 5-0.39844 0.19922-0.5 0.69922-0.39844 1.1016 0.19922 1 0.60156 2 1.1992 2.8008-1.1992-0.39844-2.3984-1.1016-3.8008-2.1992-0.19922-0.19922-0.39844-0.19922-0.69922-0.19922h-0.19922c-0.70312 0.19531-1.3047 0.19531-2.0039 0.19531-3 0-5.6016-1.1016-7.1992-2.8984 0.69922-1.1992 1.1016-2.5 1.1016-3.8984-0.003906-1.4023-0.40234-2.6016-1.1016-3.7031zm-9.6992 9.6016c-0.69922 0-1.1992-0.5-1.1992-1.1992 0-0.69922 0.5-1.1992 1.1992-1.1992 0.69922 0 1.1992 0.5 1.1992 1.1992 0 0.69922-0.5 1.1992-1.1992 1.1992zm-0.10156-11.301c1.3984 0 2.6016 0.69922 3.1992 1.8984 0.60156 1.1016 0.5 2.3984-0.30078 3.3984-0.5 0.60156-0.89844 1-1.3008 1.1992-0.39844 0.30078-0.60156 0.39844-0.60156 1 0 0.30078-0.30078 0.5-0.5 0.5h-0.80078c-0.30078 0-0.60156-0.30078-0.5-0.60156 0.10156-1.5 0.69922-2 1.3984-2.5 0.30078-0.19922 0.5-0.39844 0.80078-0.80078 0.30078-0.39844 0.30078-0.89844 0.10156-1.3008-0.19922-0.30078-0.5-0.80078-1.5-0.80078-1.1992 0-1.6016 0.80078-1.6992 1.3984 0 0.30078-0.30078 0.5-0.5 0.5h-0.89844c-0.30078 0-0.60156-0.30078-0.5-0.60156 0.20312-1.7891 1.4023-3.2891 3.6016-3.2891z"/>
 </g>
</svg>
