<?xml version="1.0" encoding="UTF-8"?>
<svg fill="#0589B5" width="100pt" height="100pt" version="1.1" viewBox="0 0 100 100" xmlns="http://www.w3.org/2000/svg">
 <g>
  <path d="m17.516 62.91 0.14844-0.73438 1.2148-5.9648c-0.48438 0.82812-1.3828 1.375-2.3906 1.375-0.12109 0-0.24609-0.007813-0.36328-0.023438-0.73438-0.097656-1.3867-0.47656-1.8398-1.0625-0.21094-0.27344-0.36328-0.58203-0.45703-0.90234v22.469c0 1.8047 1.4648 3.2656 3.2656 3.2656 1.8047 0 3.2656-1.4609 3.2656-3.2656v-13.793c-1.3867-0.5-2.1328-0.9375-2.2031-0.98047z"/>
  <path d="m20.121 36.785c0.92188-1.0781 1.8359-1.8359 2.6523-2.3711-0.70703-0.84375-1.4727-1.4258-2.1914-1.7852-0.89844-0.45312-1.6914-0.55859-2.168-0.5625-0.035156 0-0.066406-0.003906-0.10156-0.003906l-10.203-0.003906c-0.035156 0-0.066406 0.003906-0.097656 0.003906-0.47656 0.007812-1.2695 0.10938-2.168 0.5625-1.4219 0.70312-2.9531 2.2461-4.0273 4.9766-1.082 2.7461-1.8125 6.7148-1.8164 12.699 0 1.5469 0.050781 3.2305 0.15625 5.0625 0.066406 1.1211 0.99609 1.9883 2.1094 1.9922 0.042969 0 0.082031 0 0.125-0.003907 1.1641-0.070312 2.0547-1.0664 1.9883-2.2344-0.10547-1.7578-0.15234-3.3594-0.15234-4.8164-0.007812-6.3984 0.92578-9.9922 1.8398-11.867v39.637c0 1.8047 1.4648 3.2656 3.2656 3.2656 1.8047 0 3.2656-1.4609 3.2656-3.2656v-23.852h1.168c1.0742-7.8984 3.207-13.766 6.3555-17.434z"/>
  <path d="m19.16 24.609c0 3.2852-2.6602 5.9453-5.9453 5.9453s-5.9453-2.6602-5.9453-5.9453c0-3.2812 2.6602-5.9453 5.9453-5.9453s5.9453 2.6641 5.9453 5.9453"/>
  <path d="m24.426 65.031v13.59c0 1.4609 1.1836 2.6406 2.6406 2.6406 1.457 0 2.6406-1.1836 2.6406-2.6406v-13.09c-2.0352-0.023438-3.7969-0.22266-5.2812-0.5z"/>
  <path d="m30.59 65.535v13.09c0 1.4609 1.1836 2.6406 2.6406 2.6406s2.6406-1.1836 2.6406-2.6406v-13.59c-1.4805 0.27344-3.2461 0.47266-5.2812 0.5z"/>
  <path d="m31.438 21.254c3.0547 0.71094 4.9531 3.7656 4.2422 6.8203-0.71094 3.0547-3.7617 4.957-6.8203 4.2422-3.0547-0.71094-4.9531-3.7617-4.2422-6.8164 0.71094-3.0586 3.7656-4.957 6.8203-4.2461"/>
  <path d="m39.941 54.594c0.019532-0.03125 0.035156-0.0625 0.054688-0.09375l-2.9375-14.438c0.019531 0.027344 0.042968 0.050781 0.0625 0.078125 1.5742 2.0117 3.4258 5.6836 4.582 12.246 0.73438-0.62891 1.3398-0.85156 1.5156-0.91016 0.097656-0.03125 0.1875-0.054687 0.26172-0.070312 0.125-0.039062 0.24609-0.0625 0.36328-0.078125-1.2656-1.043-2.0703-2.6211-2.0703-4.3828 0-1.2578 0.41406-2.4141 1.1055-3.3555-1.0781-2.7539-2.3008-4.7148-3.5039-6.1172-2.2344-2.6172-4.3867-3.1797-4.9492-3.2656-0.5-0.125-2.3086-0.54688-4.2734-0.55469-1.9688 0.007812-3.7773 0.42969-4.2773 0.55469-0.56641 0.089844-2.7148 0.65234-4.9492 3.2656-2.4141 2.8164-4.9219 7.8828-6.1406 17.113-0.125 0.94141 0.53906 1.8047 1.4766 1.9258 0.94141 0.125 1.8047-0.53906 1.9258-1.4766 1.1016-8.3516 3.2656-12.73 5.0547-14.977l-4.543 22.332s3.9648 2.3789 11.449 2.3789c3.2031 0 5.7578-0.43359 7.6367-0.93359 0.18359-3.9258 0.90625-7.0273 2.1562-9.2422z"/>
  <path d="m94.23 34.57c-0.45312-0.23047-0.87891-0.36719-1.2461-0.44531-0.28516-0.15234-0.61328-0.23828-0.96094-0.23828h-0.41406c-1.1797 1.2422-2.8438 2.0156-4.6875 2.0156s-3.5078-0.77734-4.6875-2.0156h-0.41406c-0.34766 0-0.67187 0.085937-0.95703 0.23828-0.37109 0.082031-0.79297 0.21875-1.25 0.44531-1.0586 0.52344-2.1836 1.5273-3.1328 3.1758 0.88672 1.3125 1.6797 2.8672 2.3711 4.6562 0.28906-1.0352 0.61328-1.832 0.92969-2.4375v5.1758c0.80859 2.7266 1.4336 5.8789 1.8711 9.4492 0.18359 1.5195-0.90234 2.9062-2.418 3.0898-0.11328 0.011718-0.22266 0.019531-0.33594 0.019531-0.13281 0-0.25781-0.011719-0.38672-0.03125-0.14062 0.39844-0.27344 0.81641-0.40625 1.2656l0.68359 3.3594 0.14844 0.73438-0.64062 0.38281c-0.050781 0.03125-0.45312 0.26562-1.1914 0.58203-0.11719 1.0703-0.18359 2.2109-0.1875 3.4258 0 3.2031 0.47266 6.8867 1.7266 10.953 0.38672 1.25 1.5352 2.0508 2.7773 2.0508 0.28516 0 0.57422-0.042969 0.85938-0.12891 1.5352-0.47266 2.3945-2.1016 1.9219-3.6328-1.0859-3.5195-1.4688-6.6055-1.4688-9.2422 0-3.5938 0.71484-6.3672 1.4062-8.2148 0.33594-0.89844 0.66406-1.5742 0.90234-2.0156h3.8477c0.73047 1.3555 2.3125 4.9023 2.3086 10.23 0 2.6367-0.38281 5.7227-1.4688 9.2422-0.47266 1.5352 0.38672 3.1602 1.9219 3.6328 0.28516 0.089843 0.57422 0.12891 0.85938 0.12891 1.2422 0 2.3906-0.80078 2.7773-2.0508 1.2539-4.0664 1.7266-7.75 1.7266-10.953-0.003906-6.3594-1.8398-10.781-2.9297-12.848l-0.019532-14.598c0.19922 0.375 0.39844 0.82812 0.59375 1.3711 0.75391 2.0859 1.3789 5.4844 1.375 10.781 0 1.4609-0.046875 3.0625-0.14844 4.8242-0.0625 1.0938 0.76953 2.0312 1.8633 2.0938 0.039062 0.003906 0.078125 0.003906 0.11719 0.003906 1.043 0 1.9141-0.8125 1.9766-1.8672 0.10547-1.8281 0.15625-3.5117 0.15625-5.0547-0.011719-7.9609-1.2852-12.352-3-14.969-0.85547-1.3008-1.8516-2.1289-2.7695-2.5859z"/>
  <path d="m92.863 29.43c0 3.2812-2.6602 5.9453-5.9453 5.9453-3.2812 0-5.9453-2.6641-5.9453-5.9453 0-3.2852 2.6641-5.9453 5.9453-5.9453 3.2852 0 5.9453 2.6602 5.9453 5.9453"/>
  <path d="m58.109 73.082c0 1.4805 0.03125 3.0547 0.10938 4.707 0.066406 1.4141 1.2344 2.5195 2.6406 2.5195 0.042969 0 0.082031 0 0.125-0.003906 1.457-0.070313 2.582-1.3047 2.5156-2.7617-0.074219-1.5664-0.10547-3.0586-0.10547-4.4609 0-2.7891 0.125-5.2305 0.28906-7.2461-2.082-0.15625-3.8281-0.48438-5.2305-0.85156-0.19531 2.2266-0.34375 4.957-0.34375 8.0977z"/>
  <path d="m69.184 73.086c0 1.4023-0.03125 2.8906-0.10547 4.4609-0.070313 1.457 1.0586 2.6953 2.5156 2.7617 0.042969 0.003906 0.085938 0.003906 0.125 0.003906 1.4023 0 2.5703-1.1016 2.6367-2.5195 0.078125-1.6523 0.10938-3.2266 0.10938-4.707 0-3.1406-0.14844-5.8711-0.34375-8.0977-1.4023 0.36719-3.1484 0.69531-5.2305 0.85156 0.16797 2.0117 0.29297 4.4531 0.29297 7.2461z"/>
  <path d="m54.969 54.598c0.13281 0.23828 0.26172 0.48828 0.38281 0.75 0.015626-0.070312 0.03125-0.14062 0.042969-0.21484 0.84766-6.9961 2.3438-11.23 3.7383-13.746l-3.1562 15.523c0.60938 1.8203 0.98438 4.0156 1.1289 6.5703 1.9062 0.65625 4.9922 1.4023 9.1836 1.4023 7.4844 0 11.449-2.3789 11.449-2.3789l-4.2969-21.113c0.15625 0.28516 0.31641 0.58984 0.47656 0.91797 1.25 2.5859 2.5117 6.625 3.2656 12.828 0.10547 0.87109 0.84766 1.5117 1.7031 1.5117 0.070312 0 0.14062-0.003907 0.21094-0.011719 0.94141-0.11328 1.6133-0.97266 1.5-1.9141-1.125-9.207-3.3359-14.234-5.4766-17.055-1.4688-1.9453-2.9258-2.7852-3.8164-3.1328-1.1367 1.5625-2.9688 2.5391-5.0039 2.5391-0.47266 0-0.94922-0.054688-1.4102-0.16406-1.4609-0.33984-2.7188-1.1797-3.5977-2.3789-0.89062 0.34375-2.3516 1.1836-3.8242 3.1328-1.9023 2.5078-3.8633 6.7617-5.0625 14.145 0.66406 0.39453 1.6758 1.1992 2.5625 2.7891z"/>
  <path d="m67.578 25.332c3.0547 0.71484 4.9531 3.7656 4.2422 6.8203-0.71094 3.0547-3.7656 4.957-6.8203 4.2461-3.0547-0.71094-4.9531-3.7656-4.2422-6.8203 0.71094-3.0547 3.7656-4.957 6.8203-4.2461"/>
  <path d="m52.078 65.25h-9.25v13.801c0 1.168 0.94531 2.1133 2.1133 2.1133 1.168 0 2.1133-0.94531 2.1133-2.1133v-8.9375h0.79297v8.9375c0 1.168 0.94531 2.1133 2.1133 2.1133 1.168 0 2.1133-0.94531 2.1133-2.1133z"/>
  <path d="m54.047 55.113c-1.0977-1.9609-2.3867-2.543-2.6875-2.6328-0.0625-0.019531-0.12891-0.035157-0.19531-0.046875-0.12891-0.042969-0.26562-0.070313-0.41016-0.070313h-6.6055c-0.14453 0-0.28125 0.027344-0.41016 0.070313-0.066406 0.011718-0.12891 0.027344-0.19141 0.046875-0.30078 0.085937-1.5898 0.67188-2.6875 2.6328-1.1055 1.957-2.0664 5.2148-2.0664 10.773 0 0.36719 0.003906 0.74219 0.011719 1.1328 0.019531 0.78906 0.66797 1.418 1.4531 1.418h0.035157c0.80078-0.019531 1.4375-0.6875 1.418-1.4883-0.007813-0.36328-0.011719-0.71875-0.011719-1.0625 0-3.9922 0.53516-6.5352 1.1289-8.125v6.8594h9.25v-6.8594c0.59375 1.5859 1.1289 4.1367 1.1289 8.125 0 0.34375-0.003906 0.69922-0.011719 1.0664-0.019531 0.80078 0.61719 1.4688 1.4219 1.4844h0.03125c0.78906 0 1.4336-0.62891 1.4531-1.4219 0.007813-0.38672 0.011719-0.76172 0.011719-1.1289 0-5.5586-0.96094-8.8164-2.0664-10.773z"/>
  <path d="m52.078 46.945c0 6.1641-9.25 6.1641-9.25 0 0-6.1641 9.25-6.1641 9.25 0"/>
 </g>
</svg>
