<?xml version="1.0" encoding="UTF-8"?>
<svg fill="#0589B5" width="100pt" height="100pt" version="1.1" viewBox="0 0 100 100" xmlns="http://www.w3.org/2000/svg">
 <g>
  <path d="m61.699 49.898c-2.5-2.6992-6-4.3008-9.6992-4.3008l-4 0.003906c-1.1992 0-2.3984-0.5-3.1992-1.3984s-1.1992-2.1016-1.1016-3.3984c0.19922-2.1992 2.3008-3.8984 4.6016-3.8984h4.6016c1.3008 0 2.3984 0.89844 2.6992 2.1992 0.19922 0.80078 0.89844 1.3984 1.8008 1.3984h5.1992c0.5 0 1-0.19922 1.3984-0.60156 0.30078-0.39844 0.5-0.89844 0.5-1.3984-0.5-5.3984-4.6992-9.6016-10-10.301v-4.3984c0-1-0.80078-1.8008-1.8008-1.8008h-5.1016c-1 0-1.8008 0.80078-1.8008 1.8008v4.5c-6.6992 1.1992-11.301 7.3984-10.602 14.199 0.60156 6.6016 6.6016 11.801 13.602 11.801l3.2031-0.003907c1.1992 0 2.3984 0.5 3.1992 1.3984 0.80078 0.89844 1.1992 2.1016 1.1016 3.3984-0.19922 2.1992-2.1992 3.8984-4.6016 3.8984h-4.6016c-1.3008 0-2.3984-0.89844-2.6992-2.1992-0.19922-0.80078-0.89844-1.3984-1.8008-1.3984h-5.1992c-0.5 0-1 0.19922-1.3984 0.60156-0.30078 0.39844-0.5 0.89844-0.39844 1.3984 0.5 5.3984 4.6992 9.6016 10 10.301v4.3984c0 1 0.80078 1.8008 1.8008 1.8008h5.1016c1 0 1.8008-0.80078 1.8008-1.8008v-4.6016c5.7969-1.1953 10.195-5.8945 10.695-11.496 0.39844-3.6992-0.80078-7.3008-3.3008-10.102z"/>
  <path d="m50 2.5c-26.199 0-47.5 21.301-47.5 47.5s21.301 47.5 47.5 47.5 47.5-21.301 47.5-47.5-21.301-47.5-47.5-47.5zm-38.898 47.5c0-9.1992 3.1992-17.602 8.5-24.301l11.199 11.199c0.69922-3 2.1992-5.6992 4.3008-7.8008l-9.3984-9.3984c6.6016-5.3008 15.102-8.5 24.199-8.5 21.398 0 38.898 17.398 38.898 38.898 0 9.1992-3.1992 17.602-8.5 24.199l-11.102-11.195c-0.69922 3-2.1992 5.6016-4.3984 7.8008l9.3984 9.5c-6.6016 5.3008-15.102 8.5-24.199 8.5-21.398-0.003906-38.898-17.504-38.898-38.902z"/>
 </g>
</svg>
