<?xml version="1.0" encoding="UTF-8"?>
<svg fill="#0589B5" width="100pt" height="100pt" version="1.1" viewBox="0 0 100 100" xmlns="http://www.w3.org/2000/svg">
 <g>
  <path d="m15.625 96.875h68.75c0.41406 0 0.8125-0.16406 1.1055-0.45703s0.45703-0.69141 0.45703-1.1055v-90.625c0-0.41406-0.16406-0.8125-0.45703-1.1055s-0.69141-0.45703-1.1055-0.45703h-68.75c-0.86328 0-1.5625 0.69922-1.5625 1.5625v90.625c0 0.41406 0.16406 0.8125 0.45703 1.1055s0.69141 0.45703 1.1055 0.45703zm1.5625-90.625h65.625v87.5h-65.625z"/>
  <path d="m67.188 53.125c-5.3047-0.003906-10.035 3.3438-11.797 8.3516-1.7578 5.0039-0.16016 10.578 3.9844 13.891v13.695c0 0.59375 0.33594 1.1328 0.86328 1.3984 0.53125 0.26562 1.1641 0.20703 1.6367-0.14844l5.3125-3.9844 5.3125 3.9844c0.47266 0.35547 1.1055 0.41406 1.6367 0.14844 0.52734-0.26563 0.86328-0.80469 0.86328-1.3984v-13.695c4.1445-3.3125 5.7422-8.8867 3.9844-13.891-1.7617-5.0078-6.4922-8.3555-11.797-8.3516zm4.6875 32.812-3.75-2.8125c-0.55469-0.41797-1.3203-0.41797-1.875 0l-3.75 2.8125v-8.7344c3.0039 1.2305 6.3711 1.2305 9.375 0zm-4.6875-10.938c-3.793 0-7.2109-2.2852-8.6602-5.7891-1.4531-3.5-0.64844-7.5352 2.0312-10.215 2.6797-2.6797 6.7148-3.4844 10.215-2.0312 3.5039 1.4492 5.7891 4.8672 5.7891 8.6602-0.003906 5.1758-4.1992 9.3711-9.375 9.375z"/>
  <path d="m39.062 12.5h21.875v3.125h-21.875z"/>
  <path d="m43.75 18.75h12.5v3.125h-12.5z"/>
  <path d="m23.438 26.562h51.562v3.125h-51.562z"/>
  <path d="m23.438 32.812h51.562v3.125h-51.562z"/>
  <path d="m23.438 39.062h51.562v3.125h-51.562z"/>
  <path d="m23.438 45.312h51.562v3.125h-51.562z"/>
  <path d="m23.438 51.562h26.562v3.125h-26.562z"/>
  <path d="m25 70.312h9.375v3.125h-9.375z"/>
  <path d="m25 76.562h9.375v3.125h-9.375z"/>
  <path d="m25 82.812h9.375v3.125h-9.375z"/>
 </g>
</svg>
