<?xml version="1.0" encoding="UTF-8"?>
<svg fill="#0589B5" width="100pt" height="100pt" version="1.1" viewBox="0 0 100 100" xmlns="http://www.w3.org/2000/svg">
 <g>
  <path d="m50 34.375c4.5586 0 8.9297-1.8125 12.152-5.0352 3.2227-3.2266 5.0312-7.5977 5.0312-12.156s-1.8125-8.9297-5.0352-12.152c-3.2266-3.2227-7.5977-5.0312-12.156-5.0312-4.5547 0-8.9297 1.8125-12.152 5.0352s-5.0312 7.5938-5.0312 12.152c0.003906 4.5586 1.8203 8.9258 5.043 12.148 3.2227 3.2227 7.5898 5.0352 12.148 5.0391zm-5.5781-13.367c0.46875 0.007813 0.90625 0.21875 1.2109 0.57031 1.1797 1.2266 2.8008 1.9375 4.5039 1.9766 2.5 0 3.707-0.78125 3.707-2.3906 0-3.793-10.027-2.0547-10.027-8.3164 0-2.3125 1.5391-4.3125 5.0547-4.6758l0.003906-1.4805c0.027344-0.68359 0.59375-1.2227 1.2773-1.2227s1.2461 0.53906 1.2773 1.2227v1.5078c2.1992 0.25781 4.0117 1.0898 4.9453 2.3398v-0.003906c0.32422 0.43359 0.36328 1.0195 0.10156 1.4922-0.25781 0.47656-0.76953 0.75391-1.3125 0.71484-0.44922-0.039063-0.87109-0.24219-1.1797-0.57031-1.0781-0.90625-2.4414-1.3945-3.8477-1.3789-2.2812 0-3.1328 1.0117-3.1328 2.0547 0 3.4023 10.027 1.8203 10.027 8.3164 0 2.8594-1.9219 4.7305-5.6055 5.0664v1.4531h0.003907c-0.03125 0.68359-0.59375 1.2227-1.2773 1.2227s-1.25-0.53906-1.2773-1.2227v-1.4531c-2.25-0.17969-4.3164-1.3047-5.6875-3.0938-0.14453-0.21484-0.21875-0.46875-0.21875-0.72656 0.015625-0.78906 0.66406-1.418 1.4531-1.4023z"/>
  <path d="m38.762 68.555-0.03125 0.050781c-1.3359 2.3438-2.1367 4.9531-2.3398 7.6406-0.019531 0.26562-0.070313 0.53125-0.15234 0.78906-1.3359-0.51953-2.7539-0.78516-4.1875-0.78516-3.9805 0-7.6875 2.0273-9.832 5.3789-3.5234 5.4766-2.0312 12.766 3.3633 16.41 3.9648 2.6484 9.1406 2.6094 13.062-0.09375l-0.003906-0.003906c1.3594-0.94531 3.1562-3.4297 3.875-4.5898l0.007813 0.003907 7.4766-10.977 7.4766 10.977 0.007813-0.003907c0.71875 1.1602 2.5156 3.6445 3.875 4.5898l-0.003906 0.003906c3.9219 2.7031 9.0977 2.7422 13.062 0.09375 5.3945-3.6445 6.8867-10.934 3.3633-16.41-2.9844-4.6719-8.8477-6.5938-14.02-4.5938-0.082031-0.25781-0.13281-0.51953-0.15234-0.78906-0.20312-2.6875-1.0039-5.2969-2.3398-7.6406l-0.03125-0.050781-0.035156-0.050782-0.88281-1.2734 11.172-16.402 0.054687-0.085937c1.7109-2.9727 2.2422-6.4805 1.4961-9.8281l-1.4805-5.5469c-0.8125-3.0352-2.8867-4.1172-4.5625-4.1172-0.95703 0-2.7812 0.34766-4.2773 2.668l-12.723 18.391-12.723-18.391c-1.4961-2.3203-3.3203-2.668-4.2773-2.668-1.6758 0-3.75 1.082-4.5625 4.1133l-1.4805 5.5508c-0.74609 3.3477-0.21484 6.8555 1.4961 9.8281l0.054687 0.085937 11.172 16.402-0.88281 1.2734zm21.73 7.9258c0.0625 0.94141 0.33984 1.8516 0.81641 2.6641 0.42188 0.71484 0.90625 1.3906 1.4531 2.0156 0.15234-0.11719 0.30469-0.23828 0.46875-0.34766 1.3945-0.9375 3.0391-1.4375 4.7188-1.4375 2.918 0.003906 5.6328 1.4922 7.207 3.9492 2.6094 4.0391 1.5117 9.4258-2.4727 12.117-2.8984 1.9375-6.6875 1.9102-9.5586-0.070312-0.59766-0.29688-2.8711-3.3203-3.0664-3.7734l-8.168-11.992 6.543-9.6094 0.19531 0.28516h0.003906c1.0625 1.9062 1.6992 4.0234 1.8594 6.1992zm-29.398-27.414c-1.25-2.2305-1.6484-4.8438-1.1172-7.3477l1.4805-5.5508c0.31641-1.1875 0.89062-1.7969 1.543-1.7969 0.53906 0 1.1328 0.41797 1.6758 1.2734l13.426 19.41-6.5156 9.418zm10.277 21.211 23.953-34.629c0.54297-0.85547 1.1367-1.2734 1.6758-1.2734 0.65234 0 1.2227 0.60938 1.543 1.7969l1.4805 5.5508v-0.003906c0.53125 2.5039 0.13281 5.1172-1.1172 7.3477l-28.965 42.527c-0.19531 0.45703-2.4688 3.4766-3.0664 3.7734v0.003906c-2.8711 1.9805-6.6602 2.0078-9.5586 0.070312-3.9844-2.6914-5.082-8.0781-2.4727-12.117 1.5742-2.457 4.2891-3.9453 7.207-3.9492 1.6797 0 3.3242 0.5 4.7188 1.4375 0.16406 0.10938 0.31641 0.23047 0.46875 0.34766 0.54688-0.625 1.0312-1.3008 1.4531-2.0156 0.47656-0.8125 0.75391-1.7227 0.81641-2.6641 0.16016-2.1758 0.79688-4.293 1.8594-6.1992z"/>
  <path d="m73.441 88.281c0 3.0195-2.4453 5.4688-5.4688 5.4688-3.0195 0-5.4688-2.4492-5.4688-5.4688s2.4492-5.4688 5.4688-5.4688c3.0234 0 5.4688 2.4492 5.4688 5.4688"/>
  <path d="m37.496 88.281c0 3.0195-2.4492 5.4688-5.4688 5.4688-3.0234 0-5.4688-2.4492-5.4688-5.4688s2.4453-5.4688 5.4688-5.4688c3.0195 0 5.4688 2.4492 5.4688 5.4688"/>
  <path d="m50 67.969c0.63281 0 1.2031-0.38281 1.4414-0.96484 0.24219-0.58203 0.10938-1.2578-0.33594-1.7031-0.44922-0.44531-1.1211-0.57812-1.7031-0.33984-0.58594 0.24219-0.96484 0.8125-0.96484 1.4453-0.003906 0.41406 0.16016 0.8125 0.45703 1.1055 0.29297 0.29297 0.69141 0.45703 1.1055 0.45703z"/>
 </g>
</svg>
