<?xml version="1.0" encoding="UTF-8"?>
<svg fill="#0589B5" width="100pt" height="100pt" version="1.1" viewBox="0 0 100 100" xmlns="http://www.w3.org/2000/svg">
 <path d="m42.379 7.7891c0-3.082 1.8594-5.8594 4.7031-7.0391 2.8477-1.1797 6.125-0.52734 8.3047 1.6523 2.1797 2.1797 2.832 5.457 1.6523 8.3047-1.1797 2.8477-3.957 4.7031-7.0391 4.7031-4.207 0-7.6211-3.4102-7.6211-7.6211zm7.6211 33c3.082 0 5.8594-1.8555 7.0391-4.7031 1.1797-2.8477 0.52734-6.125-1.6523-8.3047-2.1797-2.1797-5.457-2.832-8.3047-1.6523-2.8438 1.1797-4.7031 3.9609-4.7031 7.043-0.007812 2.0273 0.78906 3.9766 2.2188 5.4141 1.4297 1.4414 3.375 2.25 5.4023 2.2539zm-11.77 23.332c0.23438 2.0586 1.6133 3.8047 3.5586 4.5195l3.1602 29c0.14453 1.2656 1.2148 2.2227 2.4922 2.2188h5c1.2695 0 2.3359-0.95703 2.4805-2.2188l3.1484-28.941c2.0078-0.67578 3.4492-2.4531 3.6914-4.5586l1.8789-14.141c0.20312-1.8242-0.37891-3.6484-1.6016-5.0195-1.2227-1.3672-2.9727-2.1523-4.8086-2.1523h-2.6406c-0.31641 0.039063-0.61719 0.16797-0.85938 0.37109l-2 1.75c-0.97656 0.82812-2.4062 0.82812-3.3789 0l-2-1.75c-0.24609-0.20312-0.54297-0.33203-0.86328-0.37109h-2.7188c-1.8359 0-3.5859 0.78516-4.8086 2.1523-1.2227 1.3711-1.8047 3.1953-1.6016 5.0195zm42.289-23.281c3.082 0 5.8594-1.8555 7.0391-4.7031 1.1797-2.8477 0.52734-6.125-1.6523-8.3047-2.1758-2.1797-5.4531-2.832-8.3008-1.6523-2.8477 1.1797-4.707 3.957-4.707 7.0391 0.007812 4.207 3.4141 7.6172 7.6211 7.6211zm-13.641 9.1602l1.8711 14.102c0.23828 2.0586 1.6133 3.8047 3.5586 4.5195l3.1602 29c0.14844 1.2773 1.2461 2.2344 2.5312 2.207h5c1.2695 0 2.3359-0.95703 2.4805-2.2188l3.1211-28.93c2.0078-0.67578 3.4453-2.4531 3.6875-4.5586l1.8711-14.121c0.20312-1.8242-0.37891-3.6484-1.6016-5.0195-1.2227-1.3672-2.9727-2.1523-4.8086-2.1523h-2.6406c-0.31641 0.039063-0.61719 0.16797-0.85938 0.37109l-2 1.75c-0.97266 0.82812-2.4062 0.82812-3.3789 0l-2-1.75c-0.24609-0.20312-0.54297-0.33203-0.85938-0.37109h-2.7227c-1.8359 0-3.5859 0.78516-4.8086 2.1523-1.2227 1.3711-1.8047 3.1953-1.6016 5.0195zm-47.398-9.1797c3.082 0 5.8594-1.8555 7.0391-4.7031 1.1797-2.8477 0.52734-6.125-1.6523-8.3047-2.1797-2.1797-5.457-2.832-8.3047-1.6523-2.8477 1.1797-4.7031 3.957-4.7031 7.0391-0.003906 2.0234 0.80078 3.9648 2.2266 5.3984 1.4297 1.4336 3.3711 2.2383 5.3945 2.2422zm-13.641 9.1797l1.8711 14.102c0.23437 2.0586 1.6133 3.8047 3.5586 4.5195l3.1602 29c0.14453 1.2656 1.2148 2.2227 2.4922 2.2188h5c1.2695-0.003906 2.3359-0.95703 2.4766-2.2188l3.1484-28.941h0.003906c2.0078-0.67578 3.4453-2.4531 3.6875-4.5586l1.8828-14.121c0.20312-1.8242-0.37891-3.6484-1.6016-5.0195-1.2227-1.3672-2.9727-2.1523-4.8086-2.1523h-2.6406c-0.31641 0.039063-0.61719 0.16797-0.85937 0.37109l-2 1.75c-0.97656 0.82812-2.4062 0.82812-3.3828 0l-2-1.75c-0.24219-0.20312-0.54297-0.33203-0.85938-0.37109h-2.7305c-1.832 0.003906-3.5781 0.78906-4.8008 2.1562s-1.8008 3.1914-1.5977 5.0156zm36.52-29.5c0-3.082-1.8555-5.8594-4.7031-7.0391-2.8477-1.1797-6.125-0.52734-8.3047 1.6523-2.1797 2.1797-2.832 5.457-1.6523 8.3047 1.1797 2.8438 3.957 4.7031 7.0391 4.7031 4.2109 0 7.6211-3.4141 7.6211-7.6211zm22.898-7.6211h0.003907c-3.082 0-5.8633 1.8594-7.043 4.7031-1.1797 2.8477-0.52734 6.125 1.6523 8.3047 2.1797 2.1797 5.457 2.832 8.3047 1.6523 2.8477-1.1797 4.7031-3.957 4.7031-7.0391 0-4.207-3.4102-7.6211-7.6172-7.6211z"/>
</svg>
