<?xml version="1.0" encoding="UTF-8"?>
<svg fill="#0589B5" width="100pt" height="100pt" version="1.1" viewBox="0 0 100 100" xmlns="http://www.w3.org/2000/svg">
 <g>
  <path d="m96.406 91.328-16.797-16.094c0.078125-0.078125 0.078125-0.15625 0.15625-0.23438l0.23438-0.3125c1.7188-2.9688 2.6562-6.4062 2.6562-9.9219 0-5.3125-2.0312-10.234-5.7812-13.984-1.3281-1.3281-2.8125-2.4219-4.375-3.2812-0.15625-0.078125-0.3125-0.15625-0.46875-0.3125-0.54688-0.23438-1.0938-0.54688-1.6406-0.70312-0.23438-0.078125-0.54688-0.23438-0.78125-0.3125-0.3125-0.078125-0.54688-0.23438-0.85938-0.3125s-0.70312-0.15625-1.0156-0.23438c-0.23438-0.078125-0.46875-0.078125-0.70312-0.15625l-1.1719-0.23438c-0.15625 0-0.3125-0.078125-0.46875-0.078125-0.46875-0.078125-0.85938-0.078125-1.3281-0.15625h-0.23438c-3.2031-0.15625-6.4062 0.46875-9.375 1.7969-0.078125 0.078125-0.15625 0.078125-0.3125 0.15625-0.39062 0.15625-0.78125 0.39062-1.1719 0.625-0.15625 0.078125-0.3125 0.23438-0.54688 0.3125-0.3125 0.15625-0.625 0.39062-0.9375 0.625-0.23438 0.15625-0.54688 0.39062-0.78125 0.54688s-0.46875 0.3125-0.625 0.46875c-0.46875 0.39062-0.9375 0.78125-1.4062 1.25-0.3125 0.3125-0.625 0.625-0.85938 0.9375-0.078125 0.078125-0.078125 0.15625-0.15625 0.15625-0.85938 1.0156-1.6406 2.1875-2.3438 3.3594-1.5625 2.8906-2.4219 6.0938-2.4219 9.4531 0 5.3125 2.0312 10.234 5.7812 13.984 6.7188 6.7188 17.109 7.5781 24.766 2.6562 0.078125 0 0.078125-0.078125 0.15625-0.078125l16.094 16.719c0.39062 0.39062 0.85938 0.46875 1.0156 0.46875h0.15625c0.46875 0 0.85938-0.15625 1.1719-0.46875l4.375-4.375c0.39062-0.39062 0.46875-0.85938 0.46875-1.1719 0-0.23438-0.078125-0.70312-0.46875-1.0938zm-42.266-18.047c0.625 0.625 0.70312 1.7188 0 2.4219-0.3125 0.3125-0.78125 0.46875-1.1719 0.46875-0.46875 0-0.85938-0.15625-1.1719-0.46875-2.9688-2.9688-4.5312-6.7969-4.5312-11.016 0-4.1406 1.6406-8.0469 4.5312-11.016 0.625-0.625 1.7188-0.625 2.4219 0 0.625 0.625 0.625 1.7188 0 2.4219-2.2656 2.2656-3.5938 5.3125-3.5938 8.5938s1.1719 6.25 3.5156 8.5938z"/>
  <path d="m44.531 50.234c0.23438-0.3125 0.46875-0.54688 0.70312-0.85938 0.078125-0.078125 0.15625-0.15625 0.15625-0.23438l0.9375-0.9375c0.39062-0.39062 0.78125-0.78125 1.25-1.1719 0.078125-0.078125 0.15625-0.15625 0.23438-0.15625 0.46875-0.39062 0.9375-0.78125 1.4062-1.0938-0.54688-0.3125-0.9375-0.85938-0.9375-1.4844v-12.266c0-0.9375 0.78125-1.7188 1.7188-1.7188h14.766c0.9375 0 1.7188 0.78125 1.7188 1.7188v9.7656c1.5625 0.23438 3.0469 0.625 4.5312 1.1719 0.078125 0 0.078125 0 0.15625 0.078125 0.54688 0.23438 1.0938 0.39062 1.5625 0.70312v-20.859c0-0.46875-0.39062-0.85938-0.85938-0.85938h-23.594v2.2656c0 1.6406-1.3281 2.9688-2.9688 2.9688h-13.281c-1.6406 0-3.0469-1.3281-3.0469-3.0469v-2.2656h-23.438c-0.46875 0-0.85938 0.39062-0.85938 0.85938v28.906c0 0.46875 0.39062 0.85938 0.85938 0.85938h8.9062v-19.297c0-1.6406 1.3281-2.9688 3.0469-2.9688h15.938c0.39062 0 0.78125 0.078125 1.1719 0.23438 1.0938 0.46875 1.875 1.5625 1.875 2.7344v19.297h6.4844c0.46875-0.78125 0.9375-1.4844 1.5625-2.1875-0.078125 0-0.078125-0.078125 0-0.15625z"/>
  <path d="m17.891 33.75v18.906h15.078v-18.906zm7.5781 10.703h-3.3594v-4.6094h3.3594z"/>
  <path d="m29.062 16.406c0-1.6406 1.3281-2.9688 2.9688-2.9688h13.281c1.6406 0 3.0469 1.3281 3.0469 3.0469v2.1875h25.078c0.70312 0 1.0938-0.78125 0.70312-1.3281l-11.797-15.781h-46.953c-0.23438 0-0.54688 0.15625-0.70312 0.3125l-11.406 15.391c-0.39062 0.54688 0 1.3281 0.70312 1.3281h25.078z"/>
  <path d="m32.422 23.906h12.5v-7.1094h-12.5z"/>
  <path d="m59.297 41.719c0.46875-0.078125 0.9375-0.15625 1.4062-0.15625 0.23438 0 0.39062 0 0.625-0.078125 0.46875 0 0.9375-0.078125 1.4062-0.078125h0.23438v-7.7344h-3.9844v8.0469c0.15625 0.078125 0.23438 0 0.3125 0z"/>
  <path d="m55.391 42.656c0.078125 0 0.15625-0.078125 0.23438-0.078125v-8.8281h-3.9844v8.9062z"/>
 </g>
</svg>
