<?xml version="1.0" encoding="UTF-8"?>
<svg fill="#0589B5" width="100pt" height="100pt" version="1.1" viewBox="0 0 100 100" xmlns="http://www.w3.org/2000/svg">
 <g>
  <path d="m14.723 37.332c0.003906 0.074219 0.17969 1.8281 0.50391 2.6406 0.23047 0.56641 0.64844 1.0156 1.1914 1.2734 0.082031 0.5 0.20312 1.1641 0.37109 1.7891 0.50781 1.8477 3.1094 6.0195 6.4961 6.1367 0.089844 0 0.27734 0.003906 0.47656 0.003906l0.44141-0.003906c3.4023-0.03125 6.125-4.293 6.6289-6.1367 0.17188-0.625 0.29297-1.2891 0.37109-1.7891 0.54688-0.26172 0.96875-0.71094 1.1953-1.2734 0.32422-0.8125 0.49609-2.5664 0.50391-2.6406 0.13672-1.3867-0.34766-2.1836-0.39453-2.2266 0.56641-5.625-1.2305-6.7344-2.4297-6.9336-0.42578-0.070313-1.0703-0.23047-1.3555-0.55078-0.67188-0.73828-0.96875-1.5664-2.125-1.4961-0.42969 0.023438-1.0078-0.10938-1.3398-0.38672-0.44141-0.37109-1.0508-0.80469-1.5078-0.80469-0.44531 0-1.0039 0.41406-1.4141 0.78516-0.31641 0.28516-0.88672 0.43359-1.3164 0.40625-1.1562-0.066406-1.4531 0.75781-2.125 1.4961-0.28906 0.32031-0.93359 0.48047-1.3555 0.55078-1.1992 0.19922-2.9961 1.3086-2.4297 6.9336-0.046875 0.050781-0.52344 0.85547-0.38672 2.2266z"/>
  <path d="m22.504 62.949c0.73438-1.7891 1.832-3.2148 3.1055-4.3789-0.27344-1.3047-0.58594-2.3906-0.78125-3.0234 0.23828-0.67188 0.77344-1.3789 0.87891-2.0195 0.10547-0.67578-0.12109-1.1289-0.46484-1.5586-0.14453-0.17578-0.375-0.24609-0.53906-0.12109l-0.58594 0.41016c-0.16406 0.125-0.43359 0.125-0.59766 0l-0.58984-0.41016c-0.16016-0.125-0.39453-0.054687-0.53906 0.12109-0.34375 0.42969-0.57031 0.88672-0.46484 1.5586 0.10547 0.64453 0.64453 1.3516 0.87891 2.0234-0.27344 0.88281-0.76953 2.6211-1.0742 4.625 0.23828 0.93359 0.5 1.8711 0.77344 2.7734z"/>
  <path d="m80.316 49.332c10.301-2.4258 7.8594-20.215-1.5391-23.672-0.77734-0.20312-2.1328-0.37891-3.4844 0.23047-1.3555-0.60938-2.707-0.4375-3.4844-0.23047-9.4062 3.4609-11.844 21.277-1.5117 23.676-0.003906 0.003906-0.003906 0.011718-0.003906 0.015624 1.5312 1.3594 2.1797 7.0508 1.957 10.219 1.625 1.8242 2.8125 4.207 3.0625 7.418 2.1133-5.75 1.9844-4.9883 3.1367-6.4336-0.46484-2.7891 0.14453-9.6953 1.8555-11.203 0.003906 0.003907 0.015624-0.007812 0.011718-0.019531z"/>
  <path d="m83.121 52.602c2.3906 3.8047 4.5664 9.3438 4.5664 9.3438s-5.6367-0.11719-6.5234-2.5898c-2.4648 4.8008-5.4062 7.3555-5.8477 7.7227 0.003906 0.007813 0.003906 0.015625 0.003906 0.027344 0.003907 0.007812 0.007813 0.015625 0.011719 0.027343 0 0-0.007812-0.007812-0.011719-0.007812 0.082032 1.207 0.027344 2.5312-0.17969 3.9805 0.054687 0 0.10938-0.003907 0.15625-0.007813 2.3906 0.16406 17.965-0.60156 19.176-4.8047 2.8359-11.074-6.4062-11.008-11.352-13.691z"/>
  <path d="m63.645 54.215c0.73047 0.30078 1.5195 0.62891 2.332 1.0039 0.45313-0.86328 0.92969-1.7148 1.418-2.5-1.1055 0.58203-2.4141 1.0273-3.75 1.4961z"/>
  <path d="m5.5117 66.238c1.0117 3.6172 11.531 4.6641 16.227 4.8477-0.45703-3.1914-0.14453-5.7617 0.65234-7.8516l-3.793-12.199c-0.125-0.55078-0.5625-0.67969-0.97266-0.28906l-1.1641 1.0625c-0.39453 0.40625-1.1445 0.90234-1.6719 1.1055 0 0-1.1953 0.46484-1.8633 0.73828-4.4883 1.8359-9.5742 3.9141-7.4141 12.586z"/>
  <path d="m31.078 51.777l-1.1523-1.0156c-0.39844-0.39844-0.82422-0.27734-0.95312 0.27344l-1.9688 6.4023c2.1445-1.5508 4.5508-2.5352 6.4922-3.332 0.33203-0.13672 0.76562-0.30859 1.1758-0.46875-0.68359-0.27734-1.9219-0.75781-1.9219-0.75781-0.52734-0.19922-1.2773-0.69531-1.6719-1.1016z"/>
  <path d="m48.418 73.52h0.042969c0.93359-2.2891 1.8438-5.2539 2.6094-8.2188-0.39062-2.5273-1.0117-4.7227-1.3555-5.832 0.29688-0.84375 0.97656-1.7344 1.1055-2.5469 0.13672-0.84766-0.14844-1.4258-0.58594-1.9648-0.17969-0.22266-0.47266-0.30859-0.67969-0.15234l-0.74219 0.51562c-0.20703 0.15625-0.54297 0.15625-0.75 0l-0.74219-0.51562c-0.20312-0.15625-0.5-0.066407-0.67969 0.15234-0.4375 0.53906-0.72266 1.1172-0.58594 1.9648 0.13281 0.8125 0.80859 1.7031 1.1055 2.5508-0.34766 1.1094-0.96875 3.3008-1.3555 5.8281 0.77344 2.9648 1.6758 5.9297 2.6133 8.2188z"/>
  <path d="m47.605 79.09h1.6641c4.332 0 20.797-1.043 22.227-6.1484 2.7227-10.922-3.6875-13.539-9.3438-15.855-0.84766-0.34766-2.457-0.96875-2.457-0.96875-0.66406-0.25391-1.6094-0.88281-2.1055-1.3945l-1.4492-1.2773c-0.50391-0.50391-1.0391-0.34766-1.1992 0.34375l-6.1406 19.957c-0.19922 0.68359-0.52734 0.68359-0.73047 0.003906l-6.2031-19.961c-0.16016-0.69141-0.71094-0.85547-1.2227-0.36328l-1.4688 1.3438c-0.49609 0.50781-1.4414 1.1367-2.1055 1.3906 0 0-1.5078 0.58203-2.3477 0.92969-5.6562 2.3164-12.066 4.9336-9.3438 15.855 1.4297 5.1016 17.895 6.1445 22.227 6.1445zm8.4492-13.77c0.03125-0.066406 0.79687-0.12109 1.5078-0.12109h3.7422c0.71094 0 1.3555 0.023437 1.4297 0.054687 0.074219 0.027344 0.13672 0.73828 0.13672 1.4141 0 0.67188-0.027344 1.2812-0.0625 1.3477-0.03125 0.066406-0.79688 0.12109-1.5078 0.12109h-3.7422c-0.71094 0-1.3555-0.023438-1.4297-0.054688-0.074218-0.027343-0.14062-0.73828-0.14062-1.4141 0.003907-0.67578 0.03125-1.2812 0.066407-1.3477z"/>
  <path d="m57.285 43.715c0.21875-0.78516 0.37109-1.625 0.47266-2.2578 0.6875-0.32812 1.2148-0.89453 1.5078-1.6055 0.40625-1.0234 0.62891-3.2305 0.63281-3.3242 0.17187-1.75-0.44141-2.75-0.49609-2.8086 0.71484-7.0859-1.5508-8.4844-3.0586-8.7344-0.53516-0.089844-1.3477-0.28906-1.7109-0.69141-0.84375-0.93359-1.2188-1.9688-2.6797-1.8867-0.54297 0.027344-1.2695-0.14062-1.6875-0.48828-0.55859-0.46875-1.3281-1.0117-1.8984-1.0117-0.5625 0-1.2656 0.52344-1.7812 0.98438-0.40234 0.35938-1.1172 0.54297-1.6562 0.51562-1.4609-0.085938-1.8359 0.95312-2.6797 1.8867-0.36328 0.40234-1.1758 0.60547-1.7109 0.69141-1.5078 0.25-3.7734 1.6484-3.0586 8.7383-0.0625 0.0625-0.66797 1.0742-0.49609 2.8047 0.007813 0.09375 0.22656 2.3047 0.63672 3.3242 0.28906 0.71094 0.81641 1.2773 1.5039 1.6055 0.10156 0.63281 0.25781 1.4727 0.47266 2.2578 0.63672 2.3242 3.918 7.5859 8.1875 7.7266 0.11328 0.007813 0.35156 0.007813 0.60156 0.007813l0.55469-0.003907c4.2852-0.039062 7.7109-5.4102 8.3438-7.7305z"/>
 </g>
</svg>
