<?xml version="1.0" encoding="UTF-8"?>
<svg fill="#0589B5" width="100pt" height="100pt" version="1.1" viewBox="0 0 100 100" xmlns="http://www.w3.org/2000/svg">
 <path d="m90.32 60.441 2.7812-2.7812c4.2383-4.2383 4.2383-11.102 0-15.34l-1.6797-1.6797c-0.71875-0.71875-1-1.7812-0.71875-2.7812l0.64062-2.2812c1.6211-5.7617-1.7383-11.762-7.5-13.379l-1.6797-0.48047c-1.0195-0.28125-1.7812-1.1016-2-2.1406l-0.37891-1.6992c-0.62109-2.8398-2.3008-5.2617-4.7188-6.8203-2.4414-1.5586-5.3398-2.1016-8.1602-1.4805l-3.8398 0.83984c-0.94141 0.19922-1.9219-0.078125-2.6211-0.76172l-2.7812-2.7812c-2.0391-2.0391-4.7812-3.1797-7.6602-3.1797-2.8984 0-5.6211 1.1211-7.6602 3.1797l-1.6797 1.6797c-0.71875 0.71875-1.8008 1-2.7812 0.71875l-2.2812-0.61328c-2.7812-0.78125-5.7188-0.44141-8.2383 0.98047s-4.3398 3.7383-5.1406 6.5195l-0.48047 1.6797c-0.28125 1.0195-1.1016 1.7812-2.1406 2l-1.5391 0.33984c-2.8633 0.62109-5.4414 2.3398-7.0234 4.8594-1.5195 2.4219-2.0195 5.2812-1.4219 8.0781l0.83984 3.8398c0.19922 0.94141-0.078125 1.9219-0.76172 2.6211l-2.7812 2.7812c-4.2188 4.2188-4.2188 11.102 0 15.34l1.6797 1.6797c0.71875 0.71875 1 1.7812 0.71875 2.7812l-0.60156 2.1016c-0.80078 2.8594-0.48047 5.9414 0.98047 8.5 1.4297 2.4375 3.707 4.2383 6.4688 5 2.0391 0.57812 3.6211 2.2383 4.0586 4.3203 0.62109 2.8398 2.3008 5.2617 4.7188 6.8203 2.4414 1.5586 5.3398 2.1016 8.1602 1.4805l3.8398-0.83984c0.94141-0.19922 1.9219 0.078125 2.6211 0.76172l2.6602 2.6602c2.1016 2.1016 4.9414 3.3203 7.8984 3.3008 2.8594-0.019531 5.5391-1.1602 7.5586-3.1797l1.6797-1.6797c0.71875-0.71875 1.7812-1 2.7812-0.71875l2.2812 0.64062c2.7812 0.78125 5.7188 0.44141 8.2383-0.98047s4.3398-3.7383 5.1406-6.5195l0.48047-1.6797c0.28125-1.0195 1.1016-1.7812 2.1406-2l1.6992-0.37891c5.8398-1.2617 9.5586-7.0391 8.3008-12.898l-0.83984-3.8398c-0.23828-0.92969 0.0625-1.9102 0.74219-2.5898zm-33.68 11.258h-12.5c-2.1602 0-4.0195-1.6797-4.1016-3.8594-0.078124-2.2812 1.7383-4.1406 4-4.1406 1.2188 0 2.1992-0.98047 2.1992-2.1992v-23.578l-1.5781 0.55859c-2.1406 0.73828-4.4609-0.42188-5.1406-2.6016-0.64062-2.0781 0.55859-4.2812 2.6016-4.9805l6.8008-2.3594c1.5391-0.53906 3.2812-0.10156 4.3789 1.1992 0.62109 0.73828 0.94141 1.6797 0.94141 2.6602v29.02c0 1.2812 1.0391 2.3008 2.3008 2.3008 2.1602 0 4.0195 1.6797 4.1016 3.8594 0.074219 2.2422-1.7461 4.1211-4.0039 4.1211z"/>
</svg>
