<?xml version="1.0" encoding="UTF-8"?>
<svg fill="#0589B5" width="100pt" height="100pt" version="1.1" viewBox="0 0 100 100" xmlns="http://www.w3.org/2000/svg">
 <path d="m98.438 67.828c-1.7773-3.1289-5.3633-4.7617-8.8906-4.0469v-29.266l1.125 0.92188c0.42969 0.33984 0.96875 0.51562 1.5156 0.5h0.3125c1.0117 0.042969 1.9375-0.57031 2.293-1.5195s0.0625-2.0195-0.73047-2.6523l-5.2656-4.2812-32.469-26.25c-0.99219-0.66797-2.2891-0.66797-3.2812 0l-37.578 30.562c-0.99609 0.82031-1.1523 2.2891-0.34375 3.2969 0.49609 0.61719 1.2773 0.93359 2.0625 0.84375 0.56641 0.023438 1.1211-0.16016 1.5625-0.51562l1.1406-0.92188v26.078c-3.1992 1.4141-6.1797 3.2812-8.8438 5.5469l-9.0781 4.6875c-0.55859 0.29297-0.98047 0.78906-1.1719 1.3906-0.1875 0.60156-0.125 1.2539 0.17188 1.8125l12.281 22.969c0.29688 0.57812 0.82422 0.99609 1.4531 1.1562 0.19922 0.0625 0.40234 0.09375 0.60938 0.09375 0.4375 0 0.86328-0.125 1.2344-0.35938l9.1719-5.6875h0.1875c0.76953-0.41406 1.6992-0.41406 2.4688 0 11.109 5.9062 17.938 7.2188 21.875 7.2188 0.76562 0 1.5273-0.054688 2.2812-0.17188 2.1562-0.26562 22.281-1.8281 43.016-21.109l1.6875-1.6875c2.3047-2.2656 2.7969-5.7969 1.2031-8.6094zm-73.875-37.125 30.125-24.453 30.125 24.453v35.297l-4.8438 2.75c-3.4375 1.9219-6.5312 3.8281-9.375 5.7969-0.46875 0.3125-0.90625 0.64062-1.3594 0.95312 0.15234-0.30469 0.27344-0.625 0.35938-0.95312 0.27344-0.87891 0.27344-1.8242 0-2.7031-0.41406-1.3555-1.3789-2.4805-2.6562-3.0938v-20.609c-0.003906-3.25-1.2891-6.3672-3.5781-8.6719-2.4688-2.4805-5.8828-3.7773-9.375-3.5625-6.5508 0.54297-11.566 6.0664-11.469 12.641v11.891c-5.543-2.7695-11.934-3.3281-17.875-1.5625zm37.688 36.859h-0.70312c-11.672-0.78125-13.859-2.9531-14.062-3.125l-0.34375-0.375v-15.516c-0.074219-4.0781 3-7.5312 7.0625-7.9219 2.1641-0.14844 4.2891 0.64453 5.8281 2.1719 1.418 1.4297 2.2148 3.3594 2.2188 5.375zm-46.047 25-9.9531-18.703 5.2344-2.6875 9.9219 18.188zm77.672-19.406-1.5625 1.5625c-1.3008 1.2305-2.5938 2.3633-3.875 3.4062l-0.65625 0.53125c-18.469 14.953-35.438 15.75-35.625 15.75h-0.35938c-1.9688 0.375-8 0.48438-21.203-6.5312-1.0547-0.57031-2.2383-0.87109-3.4375-0.875-0.5 0.003906-0.99609 0.058594-1.4844 0.15625l-5.1562-9.6094c-0.12891-0.19922-0.24609-0.41016-0.34375-0.625l-4.5469-8.4375c1.3594-0.98828 2.7891-1.8789 4.2812-2.6562 1.5-0.79688 3.0703-1.4609 4.6875-1.9844 5.4648-1.9961 11.523-1.5508 16.641 1.2188 0.4375 0.25 0.84766 0.53516 1.2344 0.85938 0.5625 0.44141 1.0859 0.93359 1.5625 1.4688 0.86719 0.94141 1.9375 1.6797 3.125 2.1562 3.0312 1.3438 7.7031 2.2031 14.062 2.6406l1.0156 0.09375c1.0117 0.03125 1.9961 0.32812 2.8594 0.85938-0.17578 0.54688-0.51562 1.0234-0.96875 1.375-0.1875 0.1875-0.38672 0.36719-0.59375 0.53125-0.40625 0.33594-0.83984 0.63281-1.2969 0.89062-4.7617 2.6172-10.301 3.457-15.625 2.375-1.1758-0.23047-2.3359-0.54297-3.4688-0.9375-0.21094-0.074219-0.43359-0.11328-0.65625-0.10938-0.89453-0.058594-1.7383 0.40625-2.1719 1.1875-0.13281 0.23047-0.22266 0.48438-0.26562 0.75-0.13281 0.83594 0.1875 1.6797 0.84375 2.2188 0.36719 0.23438 0.76172 0.42969 1.1719 0.57812 1.5078 0.57031 3.082 0.9375 4.6875 1.0938 16.875 1.4688 24.781-3.625 24.781-3.625l0.42188-0.26562 7.5156-4.6875 2.75-1.7188 2.5469-1.4375 4.0156-2.25 0.21875-0.125c0.14062-0.10938 0.29297-0.20312 0.45312-0.28125 1.707-0.87109 3.7969-0.26953 4.7812 1.375 0.53906 1 0.39453 2.2305-0.35938 3.0781z"/>
</svg>
