<?xml version="1.0" encoding="UTF-8"?>
<svg fill="#0589B5" width="100pt" height="100pt" version="1.1" viewBox="0 0 100 100" xmlns="http://www.w3.org/2000/svg">
 <g>
  <path d="m39.551 42.219c-2.0938-0.68359-11.059-3.6055-15.508-5.0977-2.2578 5.8203-14.176 37.305-10.066 42.719 4.5273 5.9727 20.793-1.0273 25.527 0 4.7344 1.0312 4.1523-2.2617 4.1523-2.2617z"/>
  <path d="m51.477 24.535c-1.2422-1.6953-8.3086-1.3398-8.3086-1.3398s-1.793-3.8477-2.9492-4.5586c-1.3516-0.82812-5.1211-0.68359-5.1211-0.68359s0.35156-5.5703-1.3477-5.9844c-3.2422-0.79297-7.5586 16.508-8.9141 22.332 3.6523 1.4805 10.492 4.1211 14.352 4.7656l-0.039062-0.32812s0.13281-2.8125 2.0117-3.4844c1.2617-0.44922 7.5039-1.7305 9.25-3.4844 1.2812-1.293 2.1484-5.7578 1.0664-7.2344z"/>
  <path d="m57.23 52.332c2.7891-0.83984 7.1289-2.3828 10.711-4.6719-0.14062-1.8633 0.46094-3.9414 0.71875-5.2109 0.40234-2.0117-0.13281-3.1562-1.207-6.0312-0.19141-0.51562-1.0664-6.2539-2.8125-6.4336-1.7227-0.17578-4.0195 5.6289-4.0195 5.6289s-4.9609 0-5.5547 2.2109c-0.71484 2.6562-3.4531 4.1016-3.5625 4.4883-0.41016 1.4961 0.3125 5.5586 2.6953 6.1797 1.457 0.37891 2.5117 2.2695 3.0312 3.8398z"/>
  <path d="m69.16 50.5c-0.23047-0.21094-0.41406-0.44922-0.57422-0.70312-1.9258 1.0469-7.7188 4.1133-10.934 4.9922 1.3125 6.1875 0.5625 21.805 0.60156 22.477 0.054688 0.99219-0.59375 1.6094-0.11328 2.3984 0.73047 1.2109 2.1719 1.3242 3.8672 1.0156 1.6992-0.3125 14.336 3.1914 22.258-0.12109 9.7148-5.8477-6.4922-26.68-15.105-30.059z"/>
  <path d="m13.562 77.879c-6.75-5.1875-6.8125-17.133-8.5391-13.523-1.6133 3.3711-0.035157 11.516 2.9805 15.09 2.7695 3.2852 8.4805 3.1289 8.7109 1.0664"/>
  <path d="m87.215 73.906c2.6523 1.668 7.4727-5.4414 3.4766-7.8398-2.5156-1.5078-2.793-1.9688-3.5039-3.1406-1.707-2.8086 0.52734-10.66 4.8359-11.672 3.2031-0.75 3.4102 2.1914 1.6523 3.1523-4.1758 2.4844-4.5273 6.6523-1.6836 8.6836 1.6055 1.1484 2.7383 1.9688 3.4414 4.5273 0.98828 3.6133-1.9805 9.3594-7.6836 11.164 0 0-3.1719 0.71484-3.7578-0.58594"/>
 </g>
</svg>
