<?xml version="1.0" encoding="UTF-8"?>
<svg fill="#0589B5" width="100pt" height="100pt" version="1.1" viewBox="0 0 100 100" xmlns="http://www.w3.org/2000/svg">
 <path d="m50 11.027c-21.523 0-38.973 17.449-38.973 38.973 0 12.281 5.6875 23.23 14.566 30.375l-14.566 8.5977 38.973 0.003906c21.523 0 38.977-17.449 38.977-38.977 0-21.523-17.453-38.973-38.977-38.973zm0 74.48h-26.039l8.2422-4.7852c-10.586-6.1484-17.711-17.602-17.711-30.723 0-19.609 15.895-35.508 35.508-35.508 19.609 0 35.508 15.895 35.508 35.508 0 19.609-15.898 35.508-35.508 35.508zm-8.1602-32.277l-0.76172 2.1758h-12.781v-3.5547h10.258l2.8867-8.2422 7.5 16.797 7.8906-24.297 6.1523 16.633h9.9688v3.5586l-12.449-0.003906-3.4531-9.3438-7.5859 23.352z"/>
</svg>
