<?xml version="1.0" encoding="UTF-8"?>
<svg fill="#0589B5" width="100pt" height="100pt" version="1.1" viewBox="0 0 100 100" xmlns="http://www.w3.org/2000/svg">
 <g>
  <path d="m50 2l-38.699 12.199v23.699c0 20.602 10.102 40 27 51.898l11.699 8.1992 11.699-8.1992c16.898-11.801 27-31.199 27-51.898v-23.699zm33.301 35.898c0 18.898-9.1992 36.602-24.699 47.398l-8.6016 6-8.6016-6c-15.5-10.801-24.699-28.602-24.699-47.398v-19.801l33.301-10.5 33.301 10.5z"/>
  <path d="m38.699 32.602v5.3984h-4.1992v25.102h31v-25.102h-4.1992v-5.3984c0-6.1992-5.1016-11.301-11.301-11.301s-11.301 5.0977-11.301 11.301zm13.902 24.398h-5.1992l0.89844-6.6992c-0.89844-0.60156-1.5-1.6016-1.5-2.6992 0-1.8008 1.3984-3.1992 3.1992-3.1992s3.1992 1.3984 3.1992 3.1992c0 1.1016-0.60156 2.1016-1.5 2.6992zm-9.2031-24.398c0-3.6992 3-6.6016 6.6016-6.6016 3.6992 0 6.6016 3 6.6016 6.6016v5.3984h-13.199z"/>
 </g>
</svg>
