<?xml version="1.0" encoding="UTF-8"?>
<svg fill="#0589B5" width="100pt" height="100pt" version="1.1" viewBox="0 0 100 100" xmlns="http://www.w3.org/2000/svg">
 <g>
  <path d="m52.102 83.801c0 2.8008-4.2031 2.8008-4.2031 0s4.2031-2.8008 4.2031 0"/>
  <path d="m50 91.801c-4.3984 0-8-3.6016-8-8 0-2.6992 1.3984-5.1992 3.6016-6.6992v-33.301c0-2.5 2-4.5 4.5-4.5s4.5 2 4.5 4.5v33.301c2.1992 1.5 3.6016 4 3.6016 6.6992-0.20312 4.3984-3.8047 8-8.2031 8zm0-50.102c-1.1016 0-2 0.89844-2 2v34c0 0.39844-0.19922 0.89844-0.60156 1.1016-1.8008 1-2.8984 2.8984-2.8984 4.8984 0 3.1016 2.5 5.6016 5.6016 5.6016 3.1016 0 5.6016-2.5 5.6016-5.6016 0-2.1016-1.1016-4-2.8984-4.8984-0.39844-0.19922-0.60156-0.60156-0.60156-1.1016v-34c-0.20312-1-1.1016-2-2.2031-2z"/>
  <path d="m63.398 73.5c-0.39844 0-0.80078-0.19922-1-0.5-0.39844-0.60156-0.19922-1.3008 0.30078-1.6992 6.5-4.3008 10.402-11.5 10.402-19.301 0-12.699-10.301-23.102-23.102-23.102s-23.102 10.402-23.102 23.102c0 7.8008 3.8984 15 10.398 19.301 0.60156 0.39844 0.69922 1.1016 0.30078 1.6992-0.39844 0.60156-1.1016 0.69922-1.6992 0.30078-7.0977-4.6992-11.398-12.699-11.398-21.301 0-14.102 11.398-25.5 25.5-25.5s25.5 11.398 25.5 25.5c0 8.6016-4.3008 16.602-11.5 21.301-0.19922 0.097657-0.39844 0.19922-0.60156 0.19922z"/>
  <path d="m50 22.898c-0.69922 0-1.1992-0.5-1.1992-1.1992v-5.6016c0-0.69922 0.5-1.1992 1.1992-1.1992s1.1992 0.5 1.1992 1.1992v5.6016c0 0.60156-0.5 1.1992-1.1992 1.1992z"/>
  <path d="m28.801 31.699c-0.30078 0-0.60156-0.10156-0.89844-0.39844l-4-4c-0.5-0.5-0.5-1.1992 0-1.6992s1.3008-0.5 1.6992 0l4 4c0.5 0.5 0.5 1.1992 0 1.6992-0.10156 0.19922-0.5 0.39844-0.80078 0.39844z"/>
  <path d="m20.102 52.801h-5.6016c-0.69922 0-1.1992-0.5-1.1992-1.1992 0-0.69922 0.5-1.1992 1.1992-1.1992h5.6016c0.69922 0 1.1992 0.5 1.1992 1.1992 0 0.69922-0.60156 1.1992-1.1992 1.1992z"/>
  <path d="m24.898 77.898c-0.30078 0-0.60156-0.10156-0.89844-0.39844-0.5-0.5-0.5-1.1992 0-1.6992l4-4c0.5-0.5 1.1992-0.5 1.6992 0s0.5 1.1992 0 1.6992l-4 4c-0.19922 0.30078-0.5 0.39844-0.80078 0.39844z"/>
  <path d="m75.102 77.898c-0.30078 0-0.60156-0.10156-0.89844-0.39844l-4-4c-0.5-0.5-0.5-1.1992 0-1.6992s1.1992-0.5 1.6992 0l4 4c0.5 0.5 0.5 1.1992 0 1.6992-0.10156 0.30078-0.50391 0.39844-0.80078 0.39844z"/>
  <path d="m85.5 52.801h-5.6016c-0.69922 0-1.1992-0.5-1.1992-1.1992 0-0.69922 0.5-1.1992 1.1992-1.1992h5.6016c0.69922 0 1.1992 0.5 1.1992 1.1992 0.10156 0.69922-0.5 1.1992-1.1992 1.1992z"/>
  <path d="m71.199 31.699c-0.30078 0-0.60156-0.10156-0.89844-0.39844-0.5-0.5-0.5-1.1992 0-1.6992l4-4c0.5-0.5 1.1992-0.5 1.6992 0s0.5 1.1992 0 1.6992l-4 4c-0.19922 0.19922-0.5 0.39844-0.80078 0.39844z"/>
  <path d="m50 100c-27.602 0-50-22.398-50-50s22.398-50 50-50 50 22.398 50 50-22.398 50-50 50zm0-97.602c-26.199 0-47.602 21.402-47.602 47.602s21.402 47.602 47.602 47.602 47.602-21.301 47.602-47.602-21.402-47.602-47.602-47.602z"/>
 </g>
</svg>
